<svg width="598" height="100" viewBox="0 0 598 100" fill="none" xmlns="http://www.w3.org/2000/svg">
<path fill-rule="evenodd" clip-rule="evenodd" d="M238.993 67.8355L227.078 79.9968L208.425 61.4189L189.985 80L178.007 67.8413L196.483 49.4392L178 30.9767L189.99 19L208.425 37.4684L227.072 19.0032L239 30.9825L220.415 49.4392L238.993 67.8355ZM218.36 49.4407L236.952 30.9767L227.065 21.047L208.419 39.5109L189.989 21.047L180.048 30.9767L198.532 49.4407L180.048 67.851L189.989 77.9417L208.419 59.3704L227.065 77.9417L236.952 67.851L218.36 49.4407Z" fill="#404040"/>
<mask id="mask0_3505_246" style="mask-type:luminance" maskUnits="userSpaceOnUse" x="317" y="19" width="280" height="61">
<path d="M596.364 19H317V79.55H596.364V19Z" fill="white"/>
</mask>
<g mask="url(#mask0_3505_246)">
<path d="M377.132 49.4836L343.447 62.2895L317 72.589L333.982 49.4836L317 26.3768L343.447 36.3998L377.132 49.4836Z" fill="#BEBEBE"/>
<path d="M386.459 19.2779H430.028C446.87 19.2779 451.046 26.5166 451.046 33.1981V34.0331C451.046 41.2704 444.642 45.8644 440.188 46.2819C446.729 47.1169 453.968 52.1284 453.968 61.4533V62.2883C453.968 70.362 449.096 79.2693 430.304 79.2693H386.459V18.9987V19.2779ZM404.832 31.8059V42.245H425.432C430.304 42.245 431.835 39.8782 431.835 37.0953C431.835 34.311 430.165 31.8059 425.432 31.8059H404.832ZM404.832 54.216V65.6311H426.547C432.253 65.6311 433.785 62.7085 433.785 59.645C433.785 56.7224 432.115 54.216 426.547 54.216H404.832Z" fill="#BEBEBE"/>
<path d="M481.667 19.278L506.305 52.824V19.278H524.678V79.5501H502.963L478.604 46.4217V79.5501H460.229V19.278H481.667Z" fill="#BEBEBE"/>
<path d="M550.709 54.3558L524.818 19.278H547.645L560.591 36.9558L573.536 19.278H596.364L570.473 54.3558V79.4091H550.568V54.3558H550.709Z" fill="#BEBEBE"/>
</g>
<mask id="mask1_3505_246" style="mask-type:luminance" maskUnits="userSpaceOnUse" x="0" y="0" width="100" height="100">
<path d="M100 0H0V100H100V0Z" fill="white"/>
</mask>
<g mask="url(#mask1_3505_246)">
<mask id="mask2_3505_246" style="mask-type:alpha" maskUnits="userSpaceOnUse" x="0" y="0" width="100" height="100">
<path d="M14.9909 84.9468C34.3116 104.267 65.6366 104.267 84.9573 84.9468C104.278 65.6261 104.278 34.3011 84.9573 14.9804C65.6366 -4.34024 34.3116 -4.34024 14.9909 14.9804C-4.32973 34.3011 -4.32973 65.6261 14.9909 84.9468Z" fill="#BEBEBE"/>
</mask>
<g mask="url(#mask2_3505_246)">
<path fill-rule="evenodd" clip-rule="evenodd" d="M87.1875 15.7247L84.2101 12.7474L83.4343 13.5233C82.6522 12.8041 81.8525 12.1146 81.0369 11.4549L81.9767 10.515L78.9994 7.53772L77.6144 8.92266C76.715 8.31538 75.8 7.74089 74.8711 7.19921L76.766 5.30429L73.7886 2.327L70.965 5.15075C69.9344 4.66805 68.8906 4.22284 67.8357 3.81512L71.5562 0.0945838L68.5789 -2.88271L63.367 2.32933C62.1758 1.99553 60.9746 1.70718 59.7661 1.46426L61.1358 0.0945838L58.1585 -2.88271L54.5723 0.70346C53.1573 0.57205 51.7375 0.501401 50.3175 0.491515L55.9251 -5.11615L52.9478 -8.09344L44.0053 0.849135C42.1826 1.06926 40.3699 1.39065 38.5762 1.81332L40.295 0.0945838L37.3177 -2.88271L29.5467 4.88817C24.2697 7.27822 19.326 10.6424 14.9877 14.9808C10.6493 19.3192 7.28507 24.2628 4.89501 29.54L-2.87576 37.3107L0.101526 40.2881L1.82016 38.5693C1.3975 40.3631 1.0761 42.1758 0.855979 43.9984L-5.10938 49.9638L-2.13208 52.941L0.498362 50.3106C0.50825 51.7307 0.578899 53.1504 0.710309 54.5655L-2.87593 58.1518L0.101362 61.129L1.47111 59.7593C1.71402 60.9678 2.00238 62.169 2.33618 63.3601L-2.87602 68.5723L0.101273 71.5496L3.82197 67.8289C4.22969 68.8838 4.67489 69.9276 5.1576 70.9581L2.33369 73.782L5.31098 76.7593L7.20606 74.8642C7.74774 75.7931 8.32222 76.7082 8.92952 77.6077L7.54441 78.9927L10.5217 81.9701L11.4617 81.03C12.1214 81.8458 12.8109 82.6453 13.5301 83.4274L12.7552 84.2024L15.7324 87.1798L16.5074 86.4047C17.2895 87.124 18.0892 87.8134 18.9049 88.4731L17.9649 89.4131L20.9421 92.3905L22.3273 91.0053C23.2265 91.6125 24.1414 92.1868 25.07 92.7284L23.1756 94.6229L26.1529 97.6002L28.9761 94.7769C30.0069 95.2598 31.0509 95.7051 32.106 96.1129L31.3625 96.8563L34.3399 99.8337L36.5748 97.5987C37.7662 97.9326 38.9677 98.2209 40.1764 98.4639L36.5733 102.067L39.5506 105.044L45.3703 99.2246C46.7849 99.356 48.2039 99.4266 49.6233 99.4365L41.7831 107.277L44.7603 110.254L55.9354 99.079C57.7589 98.8588 59.5724 98.5372 61.3669 98.1143L46.9937 112.488L49.9711 115.464L70.397 95.0389C75.6733 92.6489 80.6162 89.285 84.954 84.9471C89.2918 80.6093 92.6558 75.6664 95.0457 70.3901L118.448 46.987L115.472 44.0098L98.1212 61.3601C98.5441 59.5655 98.8656 57.752 99.0858 55.9285L113.238 41.7763L110.261 38.799L99.4433 49.6165C99.4334 48.197 99.3627 46.778 99.2315 45.3634L108.028 36.5666L105.051 33.5893L98.4707 40.1695C98.2278 38.9608 97.9394 37.7593 97.6055 36.568L102.818 31.3559L99.8403 28.3786L96.1197 32.0991C95.7119 31.044 95.2666 30.0001 94.7838 28.9692L97.6079 26.1451L94.6305 23.1679L92.7353 25.0631C92.1937 24.1345 91.6194 23.2196 91.0122 22.3204L92.3972 20.9354L89.4198 17.9582L88.48 18.8981C87.8203 18.0823 87.1308 17.2827 86.4116 16.5006L87.1875 15.7247ZM88.48 18.8981C89.3794 20.0102 90.2235 21.1522 91.0122 22.3204L22.3273 91.0053C21.159 90.2166 20.017 89.3725 18.9049 88.4731L88.48 18.8981ZM92.7353 25.0631L25.07 92.7284C26.3473 93.4733 27.6508 94.1561 28.9761 94.7769L94.7838 28.9692C94.1629 27.644 93.4801 26.3404 92.7353 25.0631ZM96.1197 32.0991C96.6878 33.5689 97.1831 35.0604 97.6055 36.568L36.5748 97.5987C35.0673 97.1762 33.5758 96.6809 32.106 96.1129L96.1197 32.0991ZM98.4707 40.1695L40.1764 98.4639C41.8956 98.8094 43.6295 99.063 45.3703 99.2246L99.2315 45.3634C99.0698 43.6226 98.8162 41.8887 98.4707 40.1695ZM99.4433 49.6165C99.458 51.7243 99.3388 53.8329 99.0858 55.9285L55.9354 99.079C53.8398 99.332 51.7312 99.4512 49.6233 99.4365L99.4433 49.6165ZM98.1212 61.3601L61.3669 98.1143C64.4484 97.3881 67.4738 96.3629 70.397 95.0389L95.0457 70.3901C96.3698 67.467 97.3949 64.4416 98.1212 61.3601ZM86.4116 16.5006L16.5074 86.4047C15.9932 85.9318 15.4864 85.4459 14.9877 84.9471C14.489 84.4485 14.0031 83.9418 13.5301 83.4274L83.4343 13.5233C83.9485 13.9963 84.4553 14.4821 84.954 14.9808C85.4527 15.4795 85.9386 15.9863 86.4116 16.5006ZM11.4617 81.03L81.0369 11.4549C79.9247 10.5554 78.7827 9.71141 77.6144 8.92266L8.92952 77.6077C9.71826 78.7759 10.5623 79.9179 11.4617 81.03ZM7.20606 74.8642C6.46121 73.5869 5.7784 72.2834 5.1576 70.9581L70.965 5.15075C72.2903 5.77154 73.5938 6.45437 74.8711 7.19921L7.20606 74.8642ZM3.82197 67.8289C3.25392 66.3591 2.75866 64.8677 2.33618 63.3601L63.367 2.32933C64.8745 2.75181 66.3659 3.24707 67.8357 3.81512L3.82197 67.8289ZM1.47111 59.7593L59.7661 1.46426C58.0471 1.11871 56.3132 0.865114 54.5723 0.70346L0.710309 54.5655C0.871961 56.3064 1.12556 58.0403 1.47111 59.7593ZM0.498362 50.3106C0.483686 48.2027 0.602888 46.094 0.855979 43.9984L44.0053 0.849135C46.1009 0.596046 48.2095 0.476839 50.3175 0.491515L0.498362 50.3106ZM1.82016 38.5693C2.54625 35.4881 3.5712 32.4628 4.89501 29.54L29.5467 4.88817C32.4697 3.56436 35.495 2.53941 38.5762 1.81332L1.82016 38.5693Z" fill="#404040"/>
</g>
</g>
</svg>
