<svg width="285" height="216" viewBox="0 0 285 216" fill="none" xmlns="http://www.w3.org/2000/svg">
<mask id="path-1-outside-1_4404_246" maskUnits="userSpaceOnUse" x="6" y="45" width="231" height="168" fill="black">
<rect fill="white" x="6" y="45" width="231" height="168"/>
<path d="M61.9629 210.955C41.6748 210.955 27.4292 203.851 19.2261 189.642C11.0962 175.433 7.03125 155.181 7.03125 128.887C7.03125 102.593 11.0962 82.3052 19.2261 68.0229C27.4292 53.7407 41.6748 46.5996 61.9629 46.5996C82.251 46.5996 96.4966 53.7407 104.7 68.0229C112.83 82.3052 116.895 102.593 116.895 128.887C116.895 155.181 112.793 175.433 104.59 189.642C96.46 203.851 82.251 210.955 61.9629 210.955ZM80.3101 170.855C83.1665 161.187 84.5947 147.198 84.5947 128.887C84.5947 109.698 83.1299 95.4888 80.2002 86.2603C77.3438 77.0317 71.2646 72.4175 61.9629 72.4175C52.6611 72.4175 46.5088 77.0317 43.5059 86.2603C40.5029 95.4888 39.0015 109.698 39.0015 128.887C39.0015 147.198 40.5029 161.224 43.5059 170.965C46.5088 180.633 52.6611 185.467 61.9629 185.467C71.2646 185.467 77.3804 180.596 80.3101 170.855ZM187.269 103.619C201.404 103.619 212.977 108.416 221.985 118.011C231.067 127.605 235.608 139.874 235.608 154.815C235.608 169.683 231.177 182.793 222.315 194.146C213.453 205.499 199.683 211.175 181.006 211.175C160.938 211.175 146.143 202.789 136.622 186.016C129.224 172.906 125.525 155.987 125.525 135.259C125.525 123.101 126.038 113.213 127.063 105.596C128.895 92.0464 132.447 80.7671 137.72 71.7583C142.261 64.0679 148.194 57.8789 155.518 53.1914C162.916 48.5039 171.741 46.1602 181.995 46.1602C196.79 46.1602 208.582 49.9688 217.371 57.5859C226.16 65.1299 231.104 75.2007 232.203 87.7983H201.001C201.001 85.2349 200.013 82.415 198.035 79.3389C194.666 74.3584 189.576 71.8682 182.764 71.8682C172.583 71.8682 165.333 77.5811 161.011 89.0068C158.667 95.3057 157.056 104.607 156.177 116.912C160.059 112.298 164.563 108.929 169.69 106.805C174.817 104.681 180.677 103.619 187.269 103.619ZM166.175 133.501C160.022 138.262 156.946 145.953 156.946 156.573C156.946 165.142 159.253 172.137 163.868 177.557C168.482 182.977 174.341 185.687 181.446 185.687C188.404 185.687 193.86 183.086 197.815 177.886C201.844 172.613 203.858 165.801 203.858 157.452C203.858 148.15 201.587 141.045 197.046 136.138C192.505 131.158 186.939 128.667 180.347 128.667C175 128.667 170.276 130.279 166.175 133.501Z"/>
</mask>
<path d="M19.2261 189.642L18.3581 190.138L18.36 190.142L19.2261 189.642ZM19.2261 68.0229L18.3589 67.5249L18.357 67.5283L19.2261 68.0229ZM104.7 68.0229L105.569 67.5282L105.567 67.5249L104.7 68.0229ZM104.59 189.642L103.724 189.142L103.722 189.145L104.59 189.642ZM80.3101 170.855L81.2677 171.143L81.2691 171.138L80.3101 170.855ZM80.2002 86.2603L79.2449 86.5559L79.2471 86.5628L80.2002 86.2603ZM43.5059 170.965L42.5502 171.259L42.5509 171.261L43.5059 170.965ZM61.9629 209.955C41.9333 209.955 28.0722 202.964 20.0921 189.142L18.36 190.142C26.7862 204.737 41.4163 211.955 61.9629 211.955V209.955ZM20.094 189.145C12.0881 175.153 8.03125 155.102 8.03125 128.887H6.03125C6.03125 155.26 10.1043 175.713 18.3581 190.138L20.094 189.145ZM8.03125 128.887C8.03125 102.673 12.0879 82.5845 20.0951 68.5176L18.357 67.5283C10.1045 82.0259 6.03125 102.514 6.03125 128.887H8.03125ZM20.0932 68.521C28.0744 54.6253 41.9356 47.5996 61.9629 47.5996V45.5996C41.414 45.5996 26.784 52.8562 18.3589 67.5249L20.0932 68.521ZM61.9629 47.5996C81.9902 47.5996 95.8514 54.6253 103.833 68.521L105.567 67.5249C97.1417 52.8562 82.5118 45.5996 61.9629 45.5996V47.5996ZM103.831 68.5176C111.838 82.5845 115.895 102.673 115.895 128.887H117.895C117.895 102.514 113.821 82.0259 105.569 67.5283L103.831 68.5176ZM115.895 128.887C115.895 155.101 111.801 175.15 103.724 189.142L105.456 190.142C113.785 175.715 117.895 155.261 117.895 128.887H115.895ZM103.722 189.145C95.8149 202.964 81.9928 209.955 61.9629 209.955V211.955C82.5092 211.955 97.105 204.737 105.458 190.138L103.722 189.145ZM81.2691 171.138C84.1664 161.332 85.5947 147.229 85.5947 128.887H83.5947C83.5947 147.166 82.1666 161.042 79.351 170.572L81.2691 171.138ZM85.5947 128.887C85.5947 109.675 84.1314 95.3388 81.1533 85.9577L79.2471 86.5628C82.1283 95.6388 83.5947 109.72 83.5947 128.887H85.5947ZM81.1555 85.9646C79.682 81.2041 77.3485 77.545 74.1031 75.0816C70.8543 72.6157 66.7831 71.4175 61.9629 71.4175V73.4175C66.4444 73.4175 70.0636 74.5264 72.8939 76.6747C75.7276 78.8256 77.8619 82.0878 79.2449 86.5559L81.1555 85.9646ZM61.9629 71.4175C57.1422 71.4175 53.0554 72.6158 49.7723 75.0782C46.4929 77.5378 44.1033 81.1923 42.5549 85.9508L44.4568 86.5697C45.9113 82.0997 48.0994 78.8329 50.9723 76.6782C53.8416 74.5262 57.4819 73.4175 61.9629 73.4175V71.4175ZM42.5549 85.9508C39.5013 95.3351 38.0015 109.674 38.0015 128.887H40.0015C40.0015 109.721 41.5045 95.6425 44.4568 86.5697L42.5549 85.9508ZM38.0015 128.887C38.0015 147.232 39.5033 161.375 42.5502 171.259L44.4615 170.67C41.5026 161.072 40.0015 147.164 40.0015 128.887H38.0015ZM42.5509 171.261C44.0949 176.233 46.4779 180.053 49.7545 182.628C53.0385 185.208 57.1318 186.467 61.9629 186.467V184.467C57.4922 184.467 53.8585 183.309 50.9901 181.055C48.1144 178.795 45.9197 175.365 44.4609 170.668L42.5509 171.261ZM61.9629 186.467C66.7955 186.467 70.8821 185.198 74.149 182.596C77.4079 180.001 79.7617 176.15 81.2677 171.143L79.3524 170.567C77.9287 175.301 75.7599 178.756 72.903 181.032C70.0542 183.3 66.4321 184.467 61.9629 184.467V186.467ZM221.985 118.011L221.256 118.695L221.259 118.698L221.985 118.011ZM222.315 194.146L221.527 193.531L222.315 194.146ZM136.622 186.016L135.751 186.508L135.752 186.51L136.622 186.016ZM127.063 105.596L126.072 105.462L126.072 105.463L127.063 105.596ZM137.72 71.7583L136.859 71.2498L136.857 71.2531L137.72 71.7583ZM155.518 53.1914L154.983 52.3467L154.979 52.3491L155.518 53.1914ZM217.371 57.5859L216.716 58.3416L216.72 58.3447L217.371 57.5859ZM232.203 87.7983V88.7983H233.294L233.199 87.7115L232.203 87.7983ZM201.001 87.7983H200.001V88.7983H201.001V87.7983ZM198.035 79.3389L198.876 78.7981L198.87 78.7883L198.863 78.7786L198.035 79.3389ZM161.011 89.0068L160.076 88.6531L160.074 88.6581L161.011 89.0068ZM156.177 116.912L155.18 116.841L154.96 119.912L156.942 117.556L156.177 116.912ZM169.69 106.805L170.073 107.729L169.69 106.805ZM166.175 133.501L166.787 134.292L166.793 134.288L166.175 133.501ZM197.815 177.886L197.021 177.279L197.019 177.281L197.815 177.886ZM197.046 136.138L196.307 136.812L196.312 136.817L197.046 136.138ZM187.269 104.619C201.151 104.619 212.452 109.318 221.256 118.695L222.714 117.326C213.501 107.514 201.658 102.619 187.269 102.619V104.619ZM221.259 118.698C230.142 128.082 234.608 140.093 234.608 154.815H236.608C236.608 139.654 231.993 127.128 222.712 117.323L221.259 118.698ZM234.608 154.815C234.608 169.468 230.247 182.36 221.527 193.531L223.103 194.761C232.107 183.227 236.608 169.898 236.608 154.815H234.608ZM221.527 193.531C212.908 204.572 199.475 210.175 181.006 210.175V212.175C199.892 212.175 213.998 206.425 223.103 194.761L221.527 193.531ZM181.006 210.175C161.28 210.175 146.826 201.967 137.491 185.522L135.752 186.51C145.46 203.611 160.596 212.175 181.006 212.175V210.175ZM137.493 185.525C130.206 172.61 126.525 155.877 126.525 135.259H124.525C124.525 156.097 128.243 173.201 135.751 186.508L137.493 185.525ZM126.525 135.259C126.525 123.123 127.037 113.285 128.055 105.73L126.072 105.463C125.039 113.142 124.525 123.079 124.525 135.259H126.525ZM128.054 105.73C129.873 92.2727 133.394 81.1288 138.583 72.2635L136.857 71.2531C131.5 80.4054 127.916 91.8201 126.072 105.462L128.054 105.73ZM138.581 72.2668C143.045 64.7075 148.869 58.6343 156.057 54.0337L154.979 52.3491C147.519 57.1235 141.478 63.4282 136.859 71.2498L138.581 72.2668ZM156.053 54.0361C163.265 49.4663 171.898 47.1602 181.995 47.1602V45.1602C171.585 45.1602 162.566 47.5415 154.983 52.3467L156.053 54.0361ZM181.995 47.1602C196.617 47.1602 208.154 50.9211 216.716 58.3416L218.026 56.8302C209.01 49.0164 196.963 45.1602 181.995 45.1602V47.1602ZM216.72 58.3447C225.291 65.702 230.128 75.5218 231.206 87.8852L233.199 87.7115C232.08 74.8796 227.029 64.5578 218.022 56.8271L216.72 58.3447ZM232.203 86.7983H201.001V88.7983H232.203V86.7983ZM202.001 87.7983C202.001 84.9778 200.915 81.97 198.876 78.7981L197.194 79.8796C199.11 82.8601 200.001 85.492 200.001 87.7983H202.001ZM198.863 78.7786C195.281 73.4831 189.856 70.8682 182.764 70.8682V72.8682C189.295 72.8682 194.051 75.2337 197.207 79.8992L198.863 78.7786ZM182.764 70.8682C177.474 70.8682 172.892 72.3575 169.072 75.3673C165.264 78.3671 162.281 82.8237 160.076 88.6531L161.947 89.3606C164.063 83.7642 166.866 79.6515 170.309 76.9383C173.74 74.2353 177.874 72.8682 182.764 72.8682V70.8682ZM160.074 88.6581C157.68 95.0915 156.061 104.506 155.18 116.841L157.175 116.983C158.051 104.708 159.655 95.5198 161.948 89.3556L160.074 88.6581ZM156.942 117.556C160.73 113.053 165.107 109.786 170.073 107.729L169.308 105.881C164.02 108.071 159.388 111.542 155.412 116.268L156.942 117.556ZM170.073 107.729C175.058 105.663 180.784 104.619 187.269 104.619V102.619C180.57 102.619 174.577 103.698 169.308 105.881L170.073 107.729ZM165.563 132.711C159.084 137.724 155.946 145.764 155.946 156.573H157.946C157.946 146.141 160.961 138.8 166.787 134.292L165.563 132.711ZM155.946 156.573C155.946 165.329 158.308 172.569 163.106 178.205L164.629 176.908C160.199 171.704 157.946 164.955 157.946 156.573H155.946ZM163.106 178.205C167.91 183.847 174.048 186.687 181.446 186.687V184.687C174.635 184.687 169.054 182.106 164.629 176.908L163.106 178.205ZM181.446 186.687C188.693 186.687 194.453 183.959 198.611 178.492L197.019 177.281C193.267 182.214 188.115 184.687 181.446 184.687V186.687ZM198.61 178.493C202.803 173.005 204.858 165.963 204.858 157.452H202.858C202.858 165.639 200.885 172.221 197.021 177.279L198.61 178.493ZM204.858 157.452C204.858 147.997 202.55 140.613 197.78 135.459L196.312 136.817C200.625 141.478 202.858 148.303 202.858 157.452H204.858ZM197.785 135.464C193.06 130.281 187.227 127.667 180.347 127.667V129.667C186.651 129.667 191.951 132.034 196.307 136.812L197.785 135.464ZM180.347 127.667C174.782 127.667 169.839 129.35 165.557 132.715L166.793 134.288C170.713 131.207 175.218 129.667 180.347 129.667V127.667Z" fill="#404040" mask="url(#path-1-outside-1_4404_246)"/>
<mask id="path-3-outside-2_4404_246" maskUnits="userSpaceOnUse" x="244" y="33" width="40" height="35" fill="black">
<rect fill="white" x="244" y="33" width="40" height="35"/>
<path d="M266.39 58.4634C266.39 56.1929 267.188 54.2593 268.785 52.6626C270.382 51.0806 272.308 50.2896 274.564 50.2896C276.82 50.2896 278.746 51.0879 280.343 52.6846C281.939 54.2812 282.738 56.2075 282.738 58.4634C282.738 60.7192 281.939 62.6455 280.343 64.2422C278.746 65.8389 276.82 66.6372 274.564 66.6372C272.308 66.6372 270.382 65.8389 268.785 64.2422C267.188 62.6455 266.39 60.7192 266.39 58.4634ZM247.428 48.2461C245.831 46.6494 245.033 44.7231 245.033 42.4673C245.033 40.2114 245.831 38.2852 247.428 36.6885C249.024 35.0918 250.951 34.2935 253.207 34.2935C255.462 34.2935 257.389 35.0918 258.985 36.6885C260.582 38.2852 261.38 40.2114 261.38 42.4673C261.38 44.7231 260.582 46.6494 258.985 48.2461C257.403 49.8428 255.477 50.6411 253.207 50.6411C250.951 50.6411 249.024 49.8428 247.428 48.2461ZM256.656 66.835H253.25L271.07 34.1396H274.41L256.656 66.835ZM272.103 60.9243C272.777 61.6128 273.597 61.957 274.564 61.957C275.531 61.957 276.351 61.6201 277.025 60.9463C277.713 60.2578 278.058 59.4302 278.058 58.4634C278.058 57.4966 277.713 56.6763 277.025 56.0024C276.351 55.314 275.531 54.9697 274.564 54.9697C273.597 54.9697 272.77 55.314 272.081 56.0024C271.407 56.6763 271.07 57.4966 271.07 58.4634C271.07 59.4302 271.415 60.2505 272.103 60.9243ZM250.746 44.9282C251.419 45.6167 252.24 45.9609 253.207 45.9609C254.173 45.9609 254.994 45.624 255.667 44.9502C256.356 44.2617 256.7 43.4341 256.7 42.4673C256.7 41.5005 256.356 40.6802 255.667 40.0063C254.994 39.3179 254.173 38.9736 253.207 38.9736C252.24 38.9736 251.412 39.3179 250.724 40.0063C250.05 40.6802 249.713 41.5005 249.713 42.4673C249.713 43.4341 250.057 44.2544 250.746 44.9282Z"/>
</mask>
<path d="M268.785 52.6626L268.081 51.9522L268.078 51.9555L268.785 52.6626ZM258.985 48.2461L258.278 47.539L258.275 47.5423L258.985 48.2461ZM256.656 66.835V67.835H257.251L257.535 67.3122L256.656 66.835ZM253.25 66.835L252.372 66.3564L251.567 67.835H253.25V66.835ZM271.07 34.1396V33.1396H270.476L270.192 33.6611L271.07 34.1396ZM274.41 34.1396L275.289 34.6168L276.091 33.1396H274.41V34.1396ZM272.103 60.9243L272.818 60.2249L272.81 60.2172L272.802 60.2096L272.103 60.9243ZM277.025 56.0024L276.31 56.7019L276.318 56.7096L276.325 56.7171L277.025 56.0024ZM250.746 44.9282L251.46 44.2288L251.453 44.2211L251.445 44.2136L250.746 44.9282ZM255.667 40.0063L254.953 40.7058L254.96 40.7135L254.968 40.721L255.667 40.0063ZM267.39 58.4634C267.39 56.4564 268.084 54.7777 269.492 53.3697L268.078 51.9555C266.293 53.7409 265.39 55.9293 265.39 58.4634H267.39ZM269.489 53.373C270.898 51.9772 272.571 51.2896 274.564 51.2896V49.2896C272.046 49.2896 269.866 50.1839 268.081 51.9522L269.489 53.373ZM274.564 51.2896C276.554 51.2896 278.226 51.9823 279.636 53.3917L281.05 51.9775C279.266 50.1935 277.085 49.2896 274.564 49.2896V51.2896ZM279.636 53.3917C281.045 54.801 281.738 56.473 281.738 58.4634H283.738C283.738 55.942 282.834 53.7615 281.05 51.9775L279.636 53.3917ZM281.738 58.4634C281.738 60.4537 281.045 62.1257 279.636 63.5351L281.05 64.9493C282.834 63.1653 283.738 60.9847 283.738 58.4634H281.738ZM279.636 63.5351C278.226 64.9444 276.554 65.6372 274.564 65.6372V67.6372C277.085 67.6372 279.266 66.7333 281.05 64.9493L279.636 63.5351ZM274.564 65.6372C272.574 65.6372 270.902 64.9444 269.492 63.5351L268.078 64.9493C269.862 66.7333 272.043 67.6372 274.564 67.6372V65.6372ZM269.492 63.5351C268.083 62.1257 267.39 60.4537 267.39 58.4634H265.39C265.39 60.9847 266.294 63.1653 268.078 64.9493L269.492 63.5351ZM248.135 47.539C246.725 46.1296 246.033 44.4576 246.033 42.4673H244.033C244.033 44.9887 244.937 47.1692 246.721 48.9532L248.135 47.539ZM246.033 42.4673C246.033 40.4769 246.725 38.8049 248.135 37.3956L246.721 35.9814C244.937 37.7654 244.033 39.9459 244.033 42.4673H246.033ZM248.135 37.3956C249.544 35.9862 251.216 35.2935 253.207 35.2935V33.2935C250.685 33.2935 248.505 34.1974 246.721 35.9814L248.135 37.3956ZM253.207 35.2935C255.197 35.2935 256.869 35.9862 258.278 37.3956L259.692 35.9814C257.908 34.1974 255.728 33.2935 253.207 33.2935V35.2935ZM258.278 37.3956C259.688 38.8049 260.38 40.4769 260.38 42.4673H262.38C262.38 39.9459 261.476 37.7654 259.692 35.9814L258.278 37.3956ZM260.38 42.4673C260.38 44.4576 259.688 46.1296 258.278 47.539L259.692 48.9532C261.476 47.1692 262.38 44.9887 262.38 42.4673H260.38ZM258.275 47.5423C256.883 48.9472 255.213 49.6411 253.207 49.6411V51.6411C255.741 51.6411 257.924 50.7383 259.696 48.9499L258.275 47.5423ZM253.207 49.6411C251.216 49.6411 249.544 48.9483 248.135 47.539L246.721 48.9532C248.505 50.7372 250.685 51.6411 253.207 51.6411V49.6411ZM256.656 65.835H253.25V67.835H256.656V65.835ZM254.129 67.3135L271.948 34.6182L270.192 33.6611L252.372 66.3564L254.129 67.3135ZM271.07 35.1396H274.41V33.1396H271.07V35.1396ZM273.531 33.6625L255.777 66.3578L257.535 67.3122L275.289 34.6168L273.531 33.6625ZM271.388 61.6238C272.251 62.5052 273.329 62.957 274.564 62.957V60.957C273.865 60.957 273.303 60.7203 272.818 60.2249L271.388 61.6238ZM274.564 62.957C275.792 62.957 276.868 62.5178 277.732 61.6534L276.318 60.2392C275.835 60.7224 275.27 60.957 274.564 60.957V62.957ZM277.732 61.6534C278.607 60.7789 279.058 59.6975 279.058 58.4634H277.058C277.058 59.1628 276.82 59.7367 276.318 60.2392L277.732 61.6534ZM279.058 58.4634C279.058 57.2287 278.606 56.1505 277.724 55.2878L276.325 56.7171C276.821 57.2021 277.058 57.7644 277.058 58.4634H279.058ZM277.74 55.303C276.877 54.4215 275.799 53.9697 274.564 53.9697V55.9697C275.263 55.9697 275.825 56.2064 276.31 56.7019L277.74 55.303ZM274.564 53.9697C273.33 53.9697 272.248 54.4208 271.374 55.2953L272.788 56.7095C273.291 56.2071 273.864 55.9697 274.564 55.9697V53.9697ZM271.374 55.2953C270.51 56.1597 270.07 57.2357 270.07 58.4634H272.07C272.07 57.7575 272.305 57.1928 272.788 56.7095L271.374 55.2953ZM270.07 58.4634C270.07 59.698 270.522 60.7763 271.404 61.639L272.802 60.2096C272.307 59.7247 272.07 59.1623 272.07 58.4634H270.07ZM250.031 45.6277C250.894 46.5091 251.972 46.9609 253.207 46.9609V44.9609C252.508 44.9609 251.945 44.7243 251.46 44.2288L250.031 45.6277ZM253.207 46.9609C254.434 46.9609 255.51 46.5217 256.375 45.6573L254.96 44.2431C254.477 44.7263 253.912 44.9609 253.207 44.9609V46.9609ZM256.375 45.6573C257.249 44.7828 257.7 43.7014 257.7 42.4673H255.7C255.7 43.1668 255.463 43.7407 254.96 44.2431L256.375 45.6573ZM257.7 42.4673C257.7 41.2326 257.248 40.1544 256.367 39.2917L254.968 40.721C255.464 41.206 255.7 41.7683 255.7 42.4673H257.7ZM256.382 39.3069C255.519 38.4254 254.441 37.9736 253.207 37.9736V39.9736C253.905 39.9736 254.468 40.2103 254.953 40.7058L256.382 39.3069ZM253.207 37.9736C251.972 37.9736 250.891 38.4247 250.017 39.2992L251.431 40.7135C251.933 40.211 252.507 39.9736 253.207 39.9736V37.9736ZM250.017 39.2992C249.152 40.1636 248.713 41.2396 248.713 42.4673H250.713C250.713 41.7614 250.947 41.1967 251.431 40.7135L250.017 39.2992ZM248.713 42.4673C248.713 43.7019 249.165 44.7802 250.046 45.6429L251.445 44.2136C250.95 43.7286 250.713 43.1662 250.713 42.4673H248.713Z" fill="#404040" mask="url(#path-3-outside-2_4404_246)"/>
</svg>
