<svg width="289" height="167" viewBox="0 0 289 167" fill="none" xmlns="http://www.w3.org/2000/svg">
<path d="M43.0664 34.4487C39.5508 39.1362 37.8662 45.3984 38.0127 53.2354H8.78906C9.08203 45.3252 10.437 37.8179 12.854 30.7134C15.4175 24.4878 19.4458 18.7383 24.939 13.4648C29.0405 9.72949 33.9111 6.87305 39.5508 4.89551C45.1904 2.91797 52.1118 1.9292 60.3149 1.9292C75.5493 1.9292 87.8174 5.88428 97.1191 13.7944C106.494 21.6313 111.182 32.1782 111.182 45.4351C111.182 54.8101 108.398 62.7202 102.832 69.1655C99.3164 73.1938 95.6543 75.9404 91.8457 77.4053C94.7021 77.4053 98.8037 79.8589 104.15 84.7661C112.134 92.1636 116.125 102.271 116.125 115.088C116.125 128.565 111.438 140.43 102.063 150.684C92.7612 160.865 78.9551 165.955 60.6445 165.955C38.0859 165.955 22.4121 158.594 13.623 143.873C9.00879 136.036 6.44531 125.782 5.93262 113.111H36.6943C36.6943 119.483 37.7197 124.756 39.7705 128.931C43.5791 136.622 50.5005 140.467 60.5347 140.467C66.687 140.467 72.0337 138.379 76.5747 134.205C81.189 129.957 83.4961 123.877 83.4961 115.967C83.4961 105.494 79.248 98.499 70.752 94.9834C65.918 93.0059 58.3008 92.0171 47.9004 92.0171V69.605C58.0811 69.4585 65.1855 68.4697 69.2139 66.6387C76.1719 63.5625 79.6509 57.3369 79.6509 47.9619C79.6509 41.8828 77.8564 36.939 74.2676 33.1304C70.752 29.3218 65.7715 27.4175 59.3262 27.4175C51.9287 27.4175 46.5088 29.7612 43.0664 34.4487ZM187.269 58.6187C201.404 58.6187 212.977 63.416 221.985 73.0107C231.067 82.6055 235.608 94.8735 235.608 109.815C235.608 124.683 231.177 137.793 222.315 149.146C213.453 160.499 199.683 166.175 181.006 166.175C160.938 166.175 146.143 157.789 136.622 141.016C129.224 127.906 125.525 110.987 125.525 90.2593C125.525 78.1011 126.038 68.2134 127.063 60.5962C128.895 47.0464 132.447 35.7671 137.72 26.7583C142.261 19.0679 148.194 12.8789 155.518 8.19141C162.916 3.50391 171.741 1.16016 181.995 1.16016C196.79 1.16016 208.582 4.96875 217.371 12.5859C226.16 20.1299 231.104 30.2007 232.203 42.7983H201.001C201.001 40.2349 200.013 37.415 198.035 34.3389C194.666 29.3584 189.576 26.8682 182.764 26.8682C172.583 26.8682 165.333 32.5811 161.011 44.0068C158.667 50.3057 157.056 59.6074 156.177 71.9121C160.059 67.2979 164.563 63.9287 169.69 61.8047C174.817 59.6807 180.677 58.6187 187.269 58.6187ZM166.175 88.5015C160.022 93.2622 156.946 100.953 156.946 111.573C156.946 120.142 159.253 127.137 163.868 132.557C168.482 137.977 174.341 140.687 181.446 140.687C188.404 140.687 193.86 138.086 197.815 132.886C201.844 127.613 203.858 120.801 203.858 112.452C203.858 103.15 201.587 96.0454 197.046 91.1382C192.505 86.1577 186.939 83.6675 180.347 83.6675C175 83.6675 170.276 85.2788 166.175 88.5015Z" fill="#B6B6B6"/>
<path d="M270.39 34.4634C270.39 32.1929 271.188 30.2593 272.785 28.6626C274.382 27.0806 276.308 26.2896 278.564 26.2896C280.82 26.2896 282.746 27.0879 284.343 28.6846C285.939 30.2812 286.738 32.2075 286.738 34.4634C286.738 36.7192 285.939 38.6455 284.343 40.2422C282.746 41.8389 280.82 42.6372 278.564 42.6372C276.308 42.6372 274.382 41.8389 272.785 40.2422C271.188 38.6455 270.39 36.7192 270.39 34.4634ZM251.428 24.2461C249.831 22.6494 249.033 20.7231 249.033 18.4673C249.033 16.2114 249.831 14.2852 251.428 12.6885C253.024 11.0918 254.951 10.2935 257.207 10.2935C259.462 10.2935 261.389 11.0918 262.985 12.6885C264.582 14.2852 265.38 16.2114 265.38 18.4673C265.38 20.7231 264.582 22.6494 262.985 24.2461C261.403 25.8428 259.477 26.6411 257.207 26.6411C254.951 26.6411 253.024 25.8428 251.428 24.2461ZM260.656 42.835H257.25L275.07 10.1396H278.41L260.656 42.835ZM276.103 36.9243C276.777 37.6128 277.597 37.957 278.564 37.957C279.531 37.957 280.351 37.6201 281.025 36.9463C281.713 36.2578 282.058 35.4302 282.058 34.4634C282.058 33.4966 281.713 32.6763 281.025 32.0024C280.351 31.314 279.531 30.9697 278.564 30.9697C277.597 30.9697 276.77 31.314 276.081 32.0024C275.407 32.6763 275.07 33.4966 275.07 34.4634C275.07 35.4302 275.415 36.2505 276.103 36.9243ZM254.746 20.9282C255.419 21.6167 256.24 21.9609 257.207 21.9609C258.173 21.9609 258.994 21.624 259.667 20.9502C260.356 20.2617 260.7 19.4341 260.7 18.4673C260.7 17.5005 260.356 16.6802 259.667 16.0063C258.994 15.3179 258.173 14.9736 257.207 14.9736C256.24 14.9736 255.412 15.3179 254.724 16.0063C254.05 16.6802 253.713 17.5005 253.713 18.4673C253.713 19.4341 254.057 20.2544 254.746 20.9282Z" fill="#B6B6B6"/>
</svg>
