<svg width="341" height="167" viewBox="0 0 341 167" fill="none" xmlns="http://www.w3.org/2000/svg">
<path d="M43.0664 34.4487C39.5508 39.1362 37.8662 45.3984 38.0127 53.2354H8.78906C9.08203 45.3252 10.437 37.8179 12.854 30.7134C15.4175 24.4878 19.4458 18.7383 24.939 13.4648C29.0405 9.72949 33.9111 6.87305 39.5508 4.89551C45.1904 2.91797 52.1118 1.9292 60.3149 1.9292C75.5493 1.9292 87.8174 5.88428 97.1191 13.7944C106.494 21.6313 111.182 32.1782 111.182 45.4351C111.182 54.8101 108.398 62.7202 102.832 69.1655C99.3164 73.1938 95.6543 75.9404 91.8457 77.4053C94.7021 77.4053 98.8037 79.8589 104.15 84.7661C112.134 92.1636 116.125 102.271 116.125 115.088C116.125 128.565 111.438 140.43 102.063 150.684C92.7612 160.865 78.9551 165.955 60.6445 165.955C38.0859 165.955 22.4121 158.594 13.623 143.873C9.00879 136.036 6.44531 125.782 5.93262 113.111H36.6943C36.6943 119.483 37.7197 124.756 39.7705 128.931C43.5791 136.622 50.5005 140.467 60.5347 140.467C66.687 140.467 72.0337 138.379 76.5747 134.205C81.189 129.957 83.4961 123.877 83.4961 115.967C83.4961 105.494 79.248 98.499 70.752 94.9834C65.918 93.0059 58.3008 92.0171 47.9004 92.0171V69.605C58.0811 69.4585 65.1855 68.4697 69.2139 66.6387C76.1719 63.5625 79.6509 57.3369 79.6509 47.9619C79.6509 41.8828 77.8564 36.939 74.2676 33.1304C70.752 29.3218 65.7715 27.4175 59.3262 27.4175C51.9287 27.4175 46.5088 29.7612 43.0664 34.4487ZM132.557 129.261H165.845V162H132.557V129.261ZM243.141 58.6187C257.276 58.6187 268.849 63.416 277.857 73.0107C286.939 82.6055 291.48 94.8735 291.48 109.815C291.48 124.683 287.049 137.793 278.187 149.146C269.325 160.499 255.555 166.175 236.878 166.175C216.81 166.175 202.015 157.789 192.494 141.016C185.096 127.906 181.397 110.987 181.397 90.2593C181.397 78.1011 181.91 68.2134 182.936 60.5962C184.767 47.0464 188.319 35.7671 193.592 26.7583C198.133 19.0679 204.066 12.8789 211.39 8.19141C218.788 3.50391 227.613 1.16016 237.867 1.16016C252.662 1.16016 264.454 4.96875 273.243 12.5859C282.032 20.1299 286.976 30.2007 288.075 42.7983H256.874C256.874 40.2349 255.885 37.415 253.907 34.3389C250.538 29.3584 245.448 26.8682 238.636 26.8682C228.456 26.8682 221.205 32.5811 216.883 44.0068C214.54 50.3057 212.928 59.6074 212.049 71.9121C215.931 67.2979 220.436 63.9287 225.562 61.8047C230.689 59.6807 236.549 58.6187 243.141 58.6187ZM222.047 88.5015C215.895 93.2622 212.818 100.953 212.818 111.573C212.818 120.142 215.125 127.137 219.74 132.557C224.354 137.977 230.213 140.687 237.318 140.687C244.276 140.687 249.732 138.086 253.688 132.886C257.716 127.613 259.73 120.801 259.73 112.452C259.73 103.15 257.459 96.0454 252.918 91.1382C248.377 86.1577 242.811 83.6675 236.219 83.6675C230.873 83.6675 226.148 85.2788 222.047 88.5015Z" fill="#B6B6B6"/>
<path d="M316.37 24.6416C315.842 23.4844 314.81 22.9058 313.271 22.9058C311.484 22.9058 310.283 23.4844 309.668 24.6416C309.331 25.3008 309.163 26.2822 309.163 27.5859V42H302.812V18.0938H308.899V21.5874C309.675 20.3423 310.408 19.4561 311.096 18.9287C312.312 17.9912 313.887 17.5225 315.82 17.5225C317.651 17.5225 319.131 17.9253 320.259 18.731C321.167 19.478 321.855 20.4375 322.324 21.6094C323.145 20.2031 324.163 19.1704 325.378 18.5112C326.667 17.8521 328.103 17.5225 329.685 17.5225C330.74 17.5225 331.78 17.7275 332.805 18.1377C333.831 18.5479 334.761 19.2656 335.596 20.291C336.27 21.126 336.724 22.1514 336.958 23.3672C337.104 24.1729 337.178 25.3521 337.178 26.9048L337.134 42H330.718V26.751C330.718 25.8428 330.571 25.0957 330.278 24.5098C329.722 23.3965 328.696 22.8398 327.202 22.8398C325.474 22.8398 324.28 23.5576 323.621 24.9932C323.284 25.7549 323.115 26.6704 323.115 27.7397V42H316.809V27.7397C316.809 26.3188 316.663 25.2861 316.37 24.6416Z" fill="#B6B6B6"/>
</svg>
