<svg width="282" height="178" viewBox="0 0 282 178" fill="none" xmlns="http://www.w3.org/2000/svg">
<path d="M61.9629 176.955C41.6748 176.955 27.4292 169.851 19.2261 155.642C11.0962 141.433 7.03125 121.181 7.03125 94.8872C7.03125 68.5933 11.0962 48.3052 19.2261 34.0229C27.4292 19.7407 41.6748 12.5996 61.9629 12.5996C82.251 12.5996 96.4966 19.7407 104.7 34.0229C112.83 48.3052 116.895 68.5933 116.895 94.8872C116.895 121.181 112.793 141.433 104.59 155.642C96.46 169.851 82.251 176.955 61.9629 176.955ZM80.3101 136.855C83.1665 127.187 84.5947 113.198 84.5947 94.8872C84.5947 75.6978 83.1299 61.4888 80.2002 52.2603C77.3438 43.0317 71.2646 38.4175 61.9629 38.4175C52.6611 38.4175 46.5088 43.0317 43.5059 52.2603C40.5029 61.4888 39.0015 75.6978 39.0015 94.8872C39.0015 113.198 40.5029 127.224 43.5059 136.965C46.5088 146.633 52.6611 151.467 61.9629 151.467C71.2646 151.467 77.3804 146.596 80.3101 136.855ZM178.479 93.8984C174.671 93.8984 171.375 94.3745 168.592 95.3267C163.685 97.0845 159.986 100.344 157.496 105.104L129.371 103.786L140.577 15.7856H228.357V42.3726H163.208L157.496 77.1992C162.33 74.0498 166.102 71.9624 168.812 70.937C173.353 69.2524 178.882 68.4102 185.401 68.4102C198.584 68.4102 210.083 72.8413 219.898 81.7036C229.712 90.5659 234.62 103.457 234.62 120.375C234.62 135.097 229.896 148.244 220.447 159.816C210.999 171.389 196.863 177.175 178.04 177.175C162.879 177.175 150.428 173.11 140.687 164.98C130.945 156.85 125.525 145.314 124.427 130.373H155.628C156.873 137.185 159.253 142.458 162.769 146.193C166.285 149.855 171.412 151.687 178.15 151.687C185.914 151.687 191.81 148.977 195.838 143.557C199.939 138.063 201.99 131.179 201.99 122.902C201.99 114.772 200.086 107.924 196.277 102.358C192.469 96.7183 186.536 93.8984 178.479 93.8984Z" fill="#B6B6B6"/>
<path d="M253.624 42H247.318V9.6123H257.162L263.05 35.0786L268.895 9.6123H278.629V42H272.323V20.0933C272.323 19.4634 272.33 18.5845 272.345 17.4565C272.359 16.314 272.367 15.4351 272.367 14.8198L266.236 42H259.667L253.58 14.8198C253.58 15.4351 253.587 16.314 253.602 17.4565C253.617 18.5845 253.624 19.4634 253.624 20.0933V42Z" fill="#B6B6B6"/>
</svg>
