<svg width="289" height="168" viewBox="0 0 289 168" fill="none" xmlns="http://www.w3.org/2000/svg">
<mask id="path-1-outside-1_4592_240" maskUnits="userSpaceOnUse" x="4" y="0" width="233" height="168" fill="black">
<rect fill="white" x="4" width="233" height="168"/>
<path d="M43.0664 34.4487C39.5508 39.1362 37.8662 45.3984 38.0127 53.2354H8.78906C9.08203 45.3252 10.437 37.8179 12.854 30.7134C15.4175 24.4878 19.4458 18.7383 24.939 13.4648C29.0405 9.72949 33.9111 6.87305 39.5508 4.89551C45.1904 2.91797 52.1118 1.9292 60.3149 1.9292C75.5493 1.9292 87.8174 5.88428 97.1191 13.7944C106.494 21.6313 111.182 32.1782 111.182 45.4351C111.182 54.8101 108.398 62.7202 102.832 69.1655C99.3164 73.1938 95.6543 75.9404 91.8457 77.4053C94.7021 77.4053 98.8037 79.8589 104.15 84.7661C112.134 92.1636 116.125 102.271 116.125 115.088C116.125 128.565 111.438 140.43 102.063 150.684C92.7612 160.865 78.9551 165.955 60.6445 165.955C38.0859 165.955 22.4121 158.594 13.623 143.873C9.00879 136.036 6.44531 125.782 5.93262 113.111H36.6943C36.6943 119.483 37.7197 124.756 39.7705 128.931C43.5791 136.622 50.5005 140.467 60.5347 140.467C66.687 140.467 72.0337 138.379 76.5747 134.205C81.189 129.957 83.4961 123.877 83.4961 115.967C83.4961 105.494 79.248 98.499 70.752 94.9834C65.918 93.0059 58.3008 92.0171 47.9004 92.0171V69.605C58.0811 69.4585 65.1855 68.4697 69.2139 66.6387C76.1719 63.5625 79.6509 57.3369 79.6509 47.9619C79.6509 41.8828 77.8564 36.939 74.2676 33.1304C70.752 29.3218 65.7715 27.4175 59.3262 27.4175C51.9287 27.4175 46.5088 29.7612 43.0664 34.4487ZM187.269 58.6187C201.404 58.6187 212.977 63.416 221.985 73.0107C231.067 82.6055 235.608 94.8735 235.608 109.815C235.608 124.683 231.177 137.793 222.315 149.146C213.453 160.499 199.683 166.175 181.006 166.175C160.938 166.175 146.143 157.789 136.622 141.016C129.224 127.906 125.525 110.987 125.525 90.2593C125.525 78.1011 126.038 68.2134 127.063 60.5962C128.895 47.0464 132.447 35.7671 137.72 26.7583C142.261 19.0679 148.194 12.8789 155.518 8.19141C162.916 3.50391 171.741 1.16016 181.995 1.16016C196.79 1.16016 208.582 4.96875 217.371 12.5859C226.16 20.1299 231.104 30.2007 232.203 42.7983H201.001C201.001 40.2349 200.013 37.415 198.035 34.3389C194.666 29.3584 189.576 26.8682 182.764 26.8682C172.583 26.8682 165.333 32.5811 161.011 44.0068C158.667 50.3057 157.056 59.6074 156.177 71.9121C160.059 67.2979 164.563 63.9287 169.69 61.8047C174.817 59.6807 180.677 58.6187 187.269 58.6187ZM166.175 88.5015C160.022 93.2622 156.946 100.953 156.946 111.573C156.946 120.142 159.253 127.137 163.868 132.557C168.482 137.977 174.341 140.687 181.446 140.687C188.404 140.687 193.86 138.086 197.815 132.886C201.844 127.613 203.858 120.801 203.858 112.452C203.858 103.15 201.587 96.0454 197.046 91.1382C192.505 86.1577 186.939 83.6675 180.347 83.6675C175 83.6675 170.276 85.2788 166.175 88.5015Z"/>
</mask>
<path d="M43.0664 34.4487C39.5508 39.1362 37.8662 45.3984 38.0127 53.2354H8.78906C9.08203 45.3252 10.437 37.8179 12.854 30.7134C15.4175 24.4878 19.4458 18.7383 24.939 13.4648C29.0405 9.72949 33.9111 6.87305 39.5508 4.89551C45.1904 2.91797 52.1118 1.9292 60.3149 1.9292C75.5493 1.9292 87.8174 5.88428 97.1191 13.7944C106.494 21.6313 111.182 32.1782 111.182 45.4351C111.182 54.8101 108.398 62.7202 102.832 69.1655C99.3164 73.1938 95.6543 75.9404 91.8457 77.4053C94.7021 77.4053 98.8037 79.8589 104.15 84.7661C112.134 92.1636 116.125 102.271 116.125 115.088C116.125 128.565 111.438 140.43 102.063 150.684C92.7612 160.865 78.9551 165.955 60.6445 165.955C38.0859 165.955 22.4121 158.594 13.623 143.873C9.00879 136.036 6.44531 125.782 5.93262 113.111H36.6943C36.6943 119.483 37.7197 124.756 39.7705 128.931C43.5791 136.622 50.5005 140.467 60.5347 140.467C66.687 140.467 72.0337 138.379 76.5747 134.205C81.189 129.957 83.4961 123.877 83.4961 115.967C83.4961 105.494 79.248 98.499 70.752 94.9834C65.918 93.0059 58.3008 92.0171 47.9004 92.0171V69.605C58.0811 69.4585 65.1855 68.4697 69.2139 66.6387C76.1719 63.5625 79.6509 57.3369 79.6509 47.9619C79.6509 41.8828 77.8564 36.939 74.2676 33.1304C70.752 29.3218 65.7715 27.4175 59.3262 27.4175C51.9287 27.4175 46.5088 29.7612 43.0664 34.4487ZM187.269 58.6187C201.404 58.6187 212.977 63.416 221.985 73.0107C231.067 82.6055 235.608 94.8735 235.608 109.815C235.608 124.683 231.177 137.793 222.315 149.146C213.453 160.499 199.683 166.175 181.006 166.175C160.938 166.175 146.143 157.789 136.622 141.016C129.224 127.906 125.525 110.987 125.525 90.2593C125.525 78.1011 126.038 68.2134 127.063 60.5962C128.895 47.0464 132.447 35.7671 137.72 26.7583C142.261 19.0679 148.194 12.8789 155.518 8.19141C162.916 3.50391 171.741 1.16016 181.995 1.16016C196.79 1.16016 208.582 4.96875 217.371 12.5859C226.16 20.1299 231.104 30.2007 232.203 42.7983H201.001C201.001 40.2349 200.013 37.415 198.035 34.3389C194.666 29.3584 189.576 26.8682 182.764 26.8682C172.583 26.8682 165.333 32.5811 161.011 44.0068C158.667 50.3057 157.056 59.6074 156.177 71.9121C160.059 67.2979 164.563 63.9287 169.69 61.8047C174.817 59.6807 180.677 58.6187 187.269 58.6187ZM166.175 88.5015C160.022 93.2622 156.946 100.953 156.946 111.573C156.946 120.142 159.253 127.137 163.868 132.557C168.482 137.977 174.341 140.687 181.446 140.687C188.404 140.687 193.86 138.086 197.815 132.886C201.844 127.613 203.858 120.801 203.858 112.452C203.858 103.15 201.587 96.0454 197.046 91.1382C192.505 86.1577 186.939 83.6675 180.347 83.6675C175 83.6675 170.276 85.2788 166.175 88.5015Z" fill="#B6B6B6"/>
<path d="M43.0664 34.4487L43.8664 35.0488L43.8724 35.0406L43.0664 34.4487ZM38.0127 53.2354V54.2354H39.0316L39.0125 53.2167L38.0127 53.2354ZM8.78906 53.2354L7.78975 53.1983L7.75134 54.2354H8.78906V53.2354ZM12.854 30.7134L11.9293 30.3326L11.9174 30.3616L11.9073 30.3913L12.854 30.7134ZM24.939 13.4648L24.2656 12.7255L24.2559 12.7344L24.2464 12.7435L24.939 13.4648ZM97.1191 13.7944L96.4713 14.5563L96.4778 14.5617L97.1191 13.7944ZM102.832 69.1655L103.585 69.8231L103.589 69.8191L102.832 69.1655ZM91.8457 77.4053L91.4867 76.4719L91.8457 78.4053V77.4053ZM104.15 84.7661L104.83 84.0326L104.827 84.0294L104.15 84.7661ZM102.063 150.684L101.325 150.009L101.325 150.01L102.063 150.684ZM13.623 143.873L12.7613 144.38L12.7644 144.385L13.623 143.873ZM5.93262 113.111V112.111H4.89134L4.93343 113.151L5.93262 113.111ZM36.6943 113.111H37.6943V112.111H36.6943V113.111ZM39.7705 128.931L38.8729 129.372L38.8744 129.375L39.7705 128.931ZM76.5747 134.205L77.2515 134.941L77.252 134.94L76.5747 134.205ZM70.752 94.9834L71.1343 94.0594L71.1306 94.0579L70.752 94.9834ZM47.9004 92.0171H46.9004V93.0171H47.9004V92.0171ZM47.9004 69.605L47.886 68.6051L46.9004 68.6193V69.605H47.9004ZM69.2139 66.6387L68.8095 65.724L68.8001 65.7283L69.2139 66.6387ZM74.2676 33.1304L73.5327 33.8087L73.5398 33.8162L74.2676 33.1304ZM43.0664 34.4487L42.2664 33.8487C38.5782 38.7664 36.8636 45.2694 37.0129 53.254L38.0127 53.2354L39.0125 53.2167C38.8688 45.5275 40.5234 39.5061 43.8664 35.0487L43.0664 34.4487ZM38.0127 53.2354V52.2354H8.78906V53.2354V54.2354H38.0127V53.2354ZM8.78906 53.2354L9.78838 53.2724C10.0779 45.4539 11.4167 38.0431 13.8007 31.0355L12.854 30.7134L11.9073 30.3913C9.45734 37.5927 8.08611 45.1964 7.78975 53.1983L8.78906 53.2354ZM12.854 30.7134L13.7787 31.0941C16.2828 25.0128 20.2254 19.3761 25.6315 14.1862L24.939 13.4648L24.2464 12.7435C18.6662 18.1005 14.5522 23.9628 11.9293 30.3326L12.854 30.7134ZM24.939 13.4648L25.6123 14.2042C29.6071 10.566 34.3588 7.77576 39.8817 5.83917L39.5508 4.89551L39.2199 3.95184C33.4634 5.97034 28.4739 8.89294 24.2656 12.7255L24.939 13.4648ZM39.5508 4.89551L39.8817 5.83917C45.3836 3.90995 52.1855 2.9292 60.3149 2.9292V1.9292V0.929199C52.0381 0.929199 44.9973 1.92599 39.2199 3.95184L39.5508 4.89551ZM60.3149 1.9292V2.9292C75.3726 2.9292 87.3918 6.83505 96.4713 14.5562L97.1191 13.7944L97.767 13.0326C88.243 4.93351 75.726 0.929199 60.3149 0.929199V1.9292ZM97.1191 13.7944L96.4778 14.5617C105.604 22.191 110.182 32.4459 110.182 45.4351H111.182H112.182C112.182 31.9106 107.384 21.0717 97.7605 13.0272L97.1191 13.7944ZM111.182 45.4351H110.182C110.182 54.5961 107.469 62.267 102.075 68.5119L102.832 69.1655L103.589 69.8191C109.328 63.1734 112.182 55.024 112.182 45.4351H111.182ZM102.832 69.1655L102.079 68.508C98.638 72.4504 95.1035 75.0808 91.4867 76.4719L91.8457 77.4053L92.2047 78.3386C96.2051 76.8 99.9948 73.9373 103.585 69.8231L102.832 69.1655ZM91.8457 77.4053V78.4053C93.0092 78.4053 94.5625 78.9142 96.5508 80.1037C98.5217 81.2826 100.828 83.0741 103.474 85.5028L104.15 84.7661L104.827 84.0294C102.126 81.5509 99.7083 79.6619 97.5776 78.3873C95.4644 77.1232 93.5387 76.4053 91.8457 76.4053V77.4053ZM104.15 84.7661L103.471 85.4996C111.213 92.6741 115.125 102.496 115.125 115.088H116.125H117.125C117.125 102.046 113.054 91.6531 104.83 84.0326L104.15 84.7661ZM116.125 115.088H115.125C115.125 128.307 110.537 139.933 101.325 150.009L102.063 150.684L102.801 151.359C112.339 140.927 117.125 128.823 117.125 115.088H116.125ZM102.063 150.684L101.325 150.01C92.2691 159.921 78.7708 164.955 60.6445 164.955V165.955V166.955C79.1393 166.955 93.2534 161.809 102.801 151.359L102.063 150.684ZM60.6445 165.955V164.955C38.3116 164.955 23.0338 157.685 14.4817 143.36L13.623 143.873L12.7644 144.385C21.7905 159.504 37.8602 166.955 60.6445 166.955V165.955ZM13.623 143.873L14.4848 143.365C9.98053 135.715 7.44032 125.638 6.9318 113.07L5.93262 113.111L4.93343 113.151C5.45031 125.925 8.03705 136.356 12.7613 144.38L13.623 143.873ZM5.93262 113.111V114.111H36.6943V113.111V112.111H5.93262V113.111ZM36.6943 113.111H35.6943C35.6943 119.582 36.7346 125.019 38.873 129.372L39.7705 128.931L40.6681 128.49C38.7048 124.494 37.6943 119.384 37.6943 113.111H36.6943ZM39.7705 128.931L38.8744 129.375C40.8608 133.386 43.6794 136.428 47.3324 138.457C50.9762 140.481 55.3922 141.467 60.5347 141.467V140.467V139.467C55.643 139.467 51.5812 138.53 48.3036 136.709C45.0352 134.893 42.4888 132.167 40.6666 128.487L39.7705 128.931ZM60.5347 140.467V141.467C66.9384 141.467 72.5265 139.285 77.2515 134.941L76.5747 134.205L75.8979 133.468C71.5409 137.474 66.4356 139.467 60.5347 139.467V140.467ZM76.5747 134.205L77.252 134.94C82.123 130.456 84.4961 124.079 84.4961 115.967H83.4961H82.4961C82.4961 123.676 80.2549 129.457 75.8974 133.469L76.5747 134.205ZM83.4961 115.967H84.4961C84.4961 110.598 83.407 106.039 81.1648 102.347C78.9169 98.6457 75.5535 95.888 71.1343 94.0594L70.752 94.9834L70.3696 95.9074C74.4465 97.5944 77.4552 100.092 79.4553 103.385C81.4612 106.688 82.4961 110.863 82.4961 115.967H83.4961ZM70.752 94.9834L71.1306 94.0579C66.1082 92.0032 58.3276 91.0171 47.9004 91.0171V92.0171V93.0171C58.2739 93.0171 65.7278 94.0085 70.3733 95.9089L70.752 94.9834ZM47.9004 92.0171H48.9004V69.605H47.9004H46.9004V92.0171H47.9004ZM47.9004 69.605L47.9148 70.6049C58.0995 70.4583 65.392 69.4743 69.6277 67.549L69.2139 66.6387L68.8001 65.7283C64.9791 67.4651 58.0626 68.4587 47.886 68.6051L47.9004 69.605ZM69.2139 66.6387L69.6182 67.5533C73.2815 65.9337 76.062 63.4653 77.9146 60.1502C79.7595 56.8486 80.6509 52.7682 80.6509 47.9619H79.6509H78.6509C78.6509 52.5307 77.8027 56.2505 76.1687 59.1745C74.5422 62.085 72.1043 64.2674 68.8095 65.7241L69.2139 66.6387ZM79.6509 47.9619H80.6509C80.6509 41.672 78.7872 36.4685 74.9954 32.4446L74.2676 33.1304L73.5398 33.8162C76.9257 37.4094 78.6509 42.0936 78.6509 47.9619H79.6509ZM74.2676 33.1304L75.0024 32.4521C71.2531 28.3904 65.9777 26.4175 59.3262 26.4175V27.4175V28.4175C65.5652 28.4175 70.2508 30.2532 73.5328 33.8087L74.2676 33.1304ZM59.3262 27.4175V26.4175C51.7062 26.4175 45.9415 28.8442 42.2604 33.8568L43.0664 34.4487L43.8724 35.0406C47.0761 30.6782 52.1512 28.4175 59.3262 28.4175V27.4175ZM221.985 73.0107L221.256 73.6952L221.259 73.6982L221.985 73.0107ZM222.315 149.146L221.527 148.531L222.315 149.146ZM136.622 141.016L135.751 141.508L135.752 141.51L136.622 141.016ZM127.063 60.5962L126.072 60.4623L126.072 60.4628L127.063 60.5962ZM137.72 26.7583L136.859 26.2498L136.857 26.2531L137.72 26.7583ZM155.518 8.19141L154.983 7.3467L154.979 7.34913L155.518 8.19141ZM217.371 12.5859L216.716 13.3416L216.72 13.3447L217.371 12.5859ZM232.203 42.7983V43.7983H233.294L233.199 42.7115L232.203 42.7983ZM201.001 42.7983H200.001V43.7983H201.001V42.7983ZM198.035 34.3389L198.876 33.7981L198.87 33.7883L198.863 33.7786L198.035 34.3389ZM161.011 44.0068L160.076 43.6531L160.074 43.6581L161.011 44.0068ZM156.177 71.9121L155.18 71.8409L154.96 74.9119L156.942 72.5559L156.177 71.9121ZM169.69 61.8047L170.073 62.7285L169.69 61.8047ZM166.175 88.5015L166.787 89.2924L166.793 89.2878L166.175 88.5015ZM197.815 132.886L197.021 132.279L197.019 132.281L197.815 132.886ZM197.046 91.1382L196.307 91.812L196.312 91.8174L197.046 91.1382ZM187.269 58.6187V59.6187C201.151 59.6187 212.452 64.3179 221.256 73.6952L221.985 73.0107L222.714 72.3262C213.501 62.5141 201.658 57.6187 187.269 57.6187V58.6187ZM221.985 73.0107L221.259 73.6982C230.142 83.0825 234.608 95.0931 234.608 109.815H235.608H236.608C236.608 94.654 231.993 82.1285 222.712 72.3233L221.985 73.0107ZM235.608 109.815H234.608C234.608 124.468 230.247 137.36 221.527 148.531L222.315 149.146L223.103 149.761C232.107 138.227 236.608 124.898 236.608 109.815H235.608ZM222.315 149.146L221.527 148.531C212.908 159.572 199.475 165.175 181.006 165.175V166.175V167.175C199.892 167.175 213.998 161.425 223.103 149.761L222.315 149.146ZM181.006 166.175V165.175C161.28 165.175 146.826 156.967 137.491 140.522L136.622 141.016L135.752 141.51C145.46 158.611 160.596 167.175 181.006 167.175V166.175ZM136.622 141.016L137.493 140.525C130.206 127.61 126.525 110.877 126.525 90.2593H125.525H124.525C124.525 111.097 128.243 128.201 135.751 141.508L136.622 141.016ZM125.525 90.2593H126.525C126.525 78.1232 127.037 68.2848 128.055 60.7296L127.063 60.5962L126.072 60.4628C125.039 68.1419 124.525 78.0789 124.525 90.2593H125.525ZM127.063 60.5962L128.054 60.7301C129.873 47.2727 133.394 36.1288 138.583 27.2635L137.72 26.7583L136.857 26.2531C131.5 35.4054 127.916 46.8201 126.072 60.4623L127.063 60.5962ZM137.72 26.7583L138.581 27.2668C143.045 19.7075 148.869 13.6343 156.057 9.03368L155.518 8.19141L154.979 7.34913C147.519 12.1235 141.478 18.4282 136.859 26.2498L137.72 26.7583ZM155.518 8.19141L156.053 9.0361C163.265 4.46634 171.898 2.16016 181.995 2.16016V1.16016V0.160156C171.585 0.160156 162.566 2.54147 154.983 7.34671L155.518 8.19141ZM181.995 1.16016V2.16016C196.617 2.16016 208.154 5.92111 216.716 13.3416L217.371 12.5859L218.026 11.8302C209.01 4.01639 196.963 0.160156 181.995 0.160156V1.16016ZM217.371 12.5859L216.72 13.3447C225.291 20.702 230.128 30.5218 231.206 42.8852L232.203 42.7983L233.199 42.7115C232.08 29.8796 227.029 19.5578 218.022 11.8271L217.371 12.5859ZM232.203 42.7983V41.7983H201.001V42.7983V43.7983H232.203V42.7983ZM201.001 42.7983H202.001C202.001 39.9778 200.915 36.97 198.876 33.7981L198.035 34.3389L197.194 34.8796C199.11 37.8601 200.001 40.492 200.001 42.7983H201.001ZM198.035 34.3389L198.863 33.7786C195.281 28.4831 189.856 25.8682 182.764 25.8682V26.8682V27.8682C189.295 27.8682 194.051 30.2337 197.207 34.8992L198.035 34.3389ZM182.764 26.8682V25.8682C177.474 25.8682 172.892 27.3575 169.072 30.3673C165.264 33.367 162.281 37.8237 160.076 43.6531L161.011 44.0068L161.947 44.3606C164.063 38.7642 166.866 34.6515 170.309 31.9383C173.74 29.2353 177.874 27.8682 182.764 27.8682V26.8682ZM161.011 44.0068L160.074 43.6581C157.68 50.0915 156.061 59.5064 155.18 71.8409L156.177 71.9121L157.175 71.9834C158.051 59.7085 159.655 50.5198 161.948 44.3556L161.011 44.0068ZM156.177 71.9121L156.942 72.5559C160.73 68.0534 165.107 64.786 170.073 62.7285L169.69 61.8047L169.308 60.8808C164.02 63.0714 159.388 66.5423 155.412 71.2683L156.177 71.9121ZM169.69 61.8047L170.073 62.7285C175.058 60.6633 180.784 59.6187 187.269 59.6187V58.6187V57.6187C180.57 57.6187 174.577 58.698 169.308 60.8808L169.69 61.8047ZM166.175 88.5015L165.563 87.7106C159.084 92.7241 155.946 100.764 155.946 111.573H156.946H157.946C157.946 101.141 160.961 93.8003 166.787 89.2923L166.175 88.5015ZM156.946 111.573H155.946C155.946 120.329 158.308 127.569 163.106 133.205L163.868 132.557L164.629 131.908C160.199 126.704 157.946 119.955 157.946 111.573H156.946ZM163.868 132.557L163.106 133.205C167.91 138.847 174.048 141.687 181.446 141.687V140.687V139.687C174.635 139.687 169.054 137.106 164.629 131.908L163.868 132.557ZM181.446 140.687V141.687C188.693 141.687 194.453 138.959 198.611 133.492L197.815 132.886L197.019 132.281C193.267 137.214 188.115 139.687 181.446 139.687V140.687ZM197.815 132.886L198.61 133.493C202.803 128.005 204.858 120.963 204.858 112.452H203.858H202.858C202.858 120.639 200.885 127.221 197.021 132.279L197.815 132.886ZM203.858 112.452H204.858C204.858 102.997 202.55 95.6128 197.78 90.459L197.046 91.1382L196.312 91.8174C200.625 96.478 202.858 103.303 202.858 112.452H203.858ZM197.046 91.1382L197.785 90.4644C193.06 85.2815 187.227 82.6675 180.347 82.6675V83.6675V84.6675C186.651 84.6675 191.951 87.034 196.307 91.8119L197.046 91.1382ZM180.347 83.6675V82.6675C174.782 82.6675 169.839 84.3504 165.557 87.7151L166.175 88.5015L166.793 89.2878C170.713 86.2073 175.218 84.6675 180.347 84.6675V83.6675Z" fill="#404040" mask="url(#path-1-outside-1_4592_240)"/>
<mask id="path-3-outside-2_4592_240" maskUnits="userSpaceOnUse" x="248" y="9" width="40" height="35" fill="black">
<rect fill="white" x="248" y="9" width="40" height="35"/>
<path d="M270.39 34.4634C270.39 32.1929 271.188 30.2593 272.785 28.6626C274.382 27.0806 276.308 26.2896 278.564 26.2896C280.82 26.2896 282.746 27.0879 284.343 28.6846C285.939 30.2812 286.738 32.2075 286.738 34.4634C286.738 36.7192 285.939 38.6455 284.343 40.2422C282.746 41.8389 280.82 42.6372 278.564 42.6372C276.308 42.6372 274.382 41.8389 272.785 40.2422C271.188 38.6455 270.39 36.7192 270.39 34.4634ZM251.428 24.2461C249.831 22.6494 249.033 20.7231 249.033 18.4673C249.033 16.2114 249.831 14.2852 251.428 12.6885C253.024 11.0918 254.951 10.2935 257.207 10.2935C259.462 10.2935 261.389 11.0918 262.985 12.6885C264.582 14.2852 265.38 16.2114 265.38 18.4673C265.38 20.7231 264.582 22.6494 262.985 24.2461C261.403 25.8428 259.477 26.6411 257.207 26.6411C254.951 26.6411 253.024 25.8428 251.428 24.2461ZM260.656 42.835H257.25L275.07 10.1396H278.41L260.656 42.835ZM276.103 36.9243C276.777 37.6128 277.597 37.957 278.564 37.957C279.531 37.957 280.351 37.6201 281.025 36.9463C281.713 36.2578 282.058 35.4302 282.058 34.4634C282.058 33.4966 281.713 32.6763 281.025 32.0024C280.351 31.314 279.531 30.9697 278.564 30.9697C277.597 30.9697 276.77 31.314 276.081 32.0024C275.407 32.6763 275.07 33.4966 275.07 34.4634C275.07 35.4302 275.415 36.2505 276.103 36.9243ZM254.746 20.9282C255.419 21.6167 256.24 21.9609 257.207 21.9609C258.173 21.9609 258.994 21.624 259.667 20.9502C260.356 20.2617 260.7 19.4341 260.7 18.4673C260.7 17.5005 260.356 16.6802 259.667 16.0063C258.994 15.3179 258.173 14.9736 257.207 14.9736C256.24 14.9736 255.412 15.3179 254.724 16.0063C254.05 16.6802 253.713 17.5005 253.713 18.4673C253.713 19.4341 254.057 20.2544 254.746 20.9282Z"/>
</mask>
<path d="M270.39 34.4634C270.39 32.1929 271.188 30.2593 272.785 28.6626C274.382 27.0806 276.308 26.2896 278.564 26.2896C280.82 26.2896 282.746 27.0879 284.343 28.6846C285.939 30.2812 286.738 32.2075 286.738 34.4634C286.738 36.7192 285.939 38.6455 284.343 40.2422C282.746 41.8389 280.82 42.6372 278.564 42.6372C276.308 42.6372 274.382 41.8389 272.785 40.2422C271.188 38.6455 270.39 36.7192 270.39 34.4634ZM251.428 24.2461C249.831 22.6494 249.033 20.7231 249.033 18.4673C249.033 16.2114 249.831 14.2852 251.428 12.6885C253.024 11.0918 254.951 10.2935 257.207 10.2935C259.462 10.2935 261.389 11.0918 262.985 12.6885C264.582 14.2852 265.38 16.2114 265.38 18.4673C265.38 20.7231 264.582 22.6494 262.985 24.2461C261.403 25.8428 259.477 26.6411 257.207 26.6411C254.951 26.6411 253.024 25.8428 251.428 24.2461ZM260.656 42.835H257.25L275.07 10.1396H278.41L260.656 42.835ZM276.103 36.9243C276.777 37.6128 277.597 37.957 278.564 37.957C279.531 37.957 280.351 37.6201 281.025 36.9463C281.713 36.2578 282.058 35.4302 282.058 34.4634C282.058 33.4966 281.713 32.6763 281.025 32.0024C280.351 31.314 279.531 30.9697 278.564 30.9697C277.597 30.9697 276.77 31.314 276.081 32.0024C275.407 32.6763 275.07 33.4966 275.07 34.4634C275.07 35.4302 275.415 36.2505 276.103 36.9243ZM254.746 20.9282C255.419 21.6167 256.24 21.9609 257.207 21.9609C258.173 21.9609 258.994 21.624 259.667 20.9502C260.356 20.2617 260.7 19.4341 260.7 18.4673C260.7 17.5005 260.356 16.6802 259.667 16.0063C258.994 15.3179 258.173 14.9736 257.207 14.9736C256.24 14.9736 255.412 15.3179 254.724 16.0063C254.05 16.6802 253.713 17.5005 253.713 18.4673C253.713 19.4341 254.057 20.2544 254.746 20.9282Z" fill="#B6B6B6"/>
<path d="M272.785 28.6626L272.081 27.9522L272.078 27.9555L272.785 28.6626ZM262.985 24.2461L262.278 23.539L262.275 23.5423L262.985 24.2461ZM260.656 42.835V43.835H261.251L261.535 43.3122L260.656 42.835ZM257.25 42.835L256.372 42.3564L255.567 43.835H257.25V42.835ZM275.07 10.1396V9.13965H274.476L274.192 9.66109L275.07 10.1396ZM278.41 10.1396L279.289 10.6168L280.091 9.13965H278.41V10.1396ZM276.103 36.9243L276.818 36.2249L276.81 36.2172L276.802 36.2096L276.103 36.9243ZM281.025 32.0024L280.31 32.7019L280.318 32.7096L280.325 32.7171L281.025 32.0024ZM254.746 20.9282L255.46 20.2288L255.453 20.2211L255.445 20.2136L254.746 20.9282ZM259.667 16.0063L258.953 16.7058L258.96 16.7135L258.968 16.721L259.667 16.0063ZM270.39 34.4634H271.39C271.39 32.4564 272.084 30.7777 273.492 29.3697L272.785 28.6626L272.078 27.9555C270.293 29.7409 269.39 31.9293 269.39 34.4634H270.39ZM272.785 28.6626L273.489 29.373C274.898 27.9772 276.571 27.2896 278.564 27.2896V26.2896V25.2896C276.046 25.2896 273.866 26.1839 272.081 27.9522L272.785 28.6626ZM278.564 26.2896V27.2896C280.554 27.2896 282.226 27.9823 283.636 29.3917L284.343 28.6846L285.05 27.9775C283.266 26.1935 281.085 25.2896 278.564 25.2896V26.2896ZM284.343 28.6846L283.636 29.3917C285.045 30.801 285.738 32.473 285.738 34.4634H286.738H287.738C287.738 31.942 286.834 29.7615 285.05 27.9775L284.343 28.6846ZM286.738 34.4634H285.738C285.738 36.4537 285.045 38.1257 283.636 39.5351L284.343 40.2422L285.05 40.9493C286.834 39.1653 287.738 36.9847 287.738 34.4634H286.738ZM284.343 40.2422L283.636 39.5351C282.226 40.9444 280.554 41.6372 278.564 41.6372V42.6372V43.6372C281.085 43.6372 283.266 42.7333 285.05 40.9493L284.343 40.2422ZM278.564 42.6372V41.6372C276.574 41.6372 274.902 40.9444 273.492 39.5351L272.785 40.2422L272.078 40.9493C273.862 42.7333 276.043 43.6372 278.564 43.6372V42.6372ZM272.785 40.2422L273.492 39.5351C272.083 38.1257 271.39 36.4537 271.39 34.4634H270.39H269.39C269.39 36.9847 270.294 39.1653 272.078 40.9493L272.785 40.2422ZM251.428 24.2461L252.135 23.539C250.725 22.1296 250.033 20.4576 250.033 18.4673H249.033H248.033C248.033 20.9887 248.937 23.1692 250.721 24.9532L251.428 24.2461ZM249.033 18.4673H250.033C250.033 16.4769 250.725 14.8049 252.135 13.3956L251.428 12.6885L250.721 11.9814C248.937 13.7654 248.033 15.9459 248.033 18.4673H249.033ZM251.428 12.6885L252.135 13.3956C253.544 11.9862 255.216 11.2935 257.207 11.2935V10.2935V9.29346C254.685 9.29346 252.505 10.1974 250.721 11.9814L251.428 12.6885ZM257.207 10.2935V11.2935C259.197 11.2935 260.869 11.9862 262.278 13.3956L262.985 12.6885L263.692 11.9814C261.908 10.1974 259.728 9.29346 257.207 9.29346V10.2935ZM262.985 12.6885L262.278 13.3956C263.688 14.8049 264.38 16.4769 264.38 18.4673H265.38H266.38C266.38 15.9459 265.476 13.7654 263.692 11.9814L262.985 12.6885ZM265.38 18.4673H264.38C264.38 20.4576 263.688 22.1296 262.278 23.539L262.985 24.2461L263.692 24.9532C265.476 23.1692 266.38 20.9887 266.38 18.4673H265.38ZM262.985 24.2461L262.275 23.5423C260.883 24.9472 259.213 25.6411 257.207 25.6411V26.6411V27.6411C259.741 27.6411 261.924 26.7383 263.696 24.9499L262.985 24.2461ZM257.207 26.6411V25.6411C255.216 25.6411 253.544 24.9483 252.135 23.539L251.428 24.2461L250.721 24.9532C252.505 26.7372 254.685 27.6411 257.207 27.6411V26.6411ZM260.656 42.835V41.835H257.25V42.835V43.835H260.656V42.835ZM257.25 42.835L258.129 43.3135L275.948 10.6182L275.07 10.1396L274.192 9.66109L256.372 42.3564L257.25 42.835ZM275.07 10.1396V11.1396H278.41V10.1396V9.13965H275.07V10.1396ZM278.41 10.1396L277.531 9.66245L259.777 42.3578L260.656 42.835L261.535 43.3122L279.289 10.6168L278.41 10.1396ZM276.103 36.9243L275.388 37.6238C276.251 38.5052 277.329 38.957 278.564 38.957V37.957V36.957C277.865 36.957 277.303 36.7203 276.818 36.2249L276.103 36.9243ZM278.564 37.957V38.957C279.792 38.957 280.868 38.5178 281.732 37.6534L281.025 36.9463L280.318 36.2392C279.835 36.7224 279.27 36.957 278.564 36.957V37.957ZM281.025 36.9463L281.732 37.6534C282.607 36.7789 283.058 35.6975 283.058 34.4634H282.058H281.058C281.058 35.1629 280.82 35.7367 280.318 36.2392L281.025 36.9463ZM282.058 34.4634H283.058C283.058 33.2287 282.606 32.1505 281.724 31.2878L281.025 32.0024L280.325 32.7171C280.821 33.2021 281.058 33.7644 281.058 34.4634H282.058ZM281.025 32.0024L281.74 31.303C280.877 30.4215 279.799 29.9697 278.564 29.9697V30.9697V31.9697C279.263 31.9697 279.825 32.2064 280.31 32.7019L281.025 32.0024ZM278.564 30.9697V29.9697C277.33 29.9697 276.248 30.4208 275.374 31.2953L276.081 32.0024L276.788 32.7095C277.291 32.2071 277.864 31.9697 278.564 31.9697V30.9697ZM276.081 32.0024L275.374 31.2953C274.51 32.1597 274.07 33.2357 274.07 34.4634H275.07H276.07C276.07 33.7575 276.305 33.1928 276.788 32.7095L276.081 32.0024ZM275.07 34.4634H274.07C274.07 35.698 274.522 36.7763 275.404 37.639L276.103 36.9243L276.802 36.2096C276.307 35.7247 276.07 35.1623 276.07 34.4634H275.07ZM254.746 20.9282L254.031 21.6277C254.894 22.5091 255.972 22.9609 257.207 22.9609V21.9609V20.9609C256.508 20.9609 255.945 20.7243 255.46 20.2288L254.746 20.9282ZM257.207 21.9609V22.9609C258.434 22.9609 259.51 22.5217 260.375 21.6573L259.667 20.9502L258.96 20.2431C258.477 20.7263 257.912 20.9609 257.207 20.9609V21.9609ZM259.667 20.9502L260.375 21.6573C261.249 20.7828 261.7 19.7014 261.7 18.4673H260.7H259.7C259.7 19.1668 259.463 19.7407 258.96 20.2431L259.667 20.9502ZM260.7 18.4673H261.7C261.7 17.2326 261.248 16.1544 260.367 15.2917L259.667 16.0063L258.968 16.721C259.464 17.206 259.7 17.7683 259.7 18.4673H260.7ZM259.667 16.0063L260.382 15.3069C259.519 14.4254 258.441 13.9736 257.207 13.9736V14.9736V15.9736C257.905 15.9736 258.468 16.2103 258.953 16.7058L259.667 16.0063ZM257.207 14.9736V13.9736C255.972 13.9736 254.891 14.4247 254.017 15.2992L254.724 16.0063L255.431 16.7135C255.933 16.211 256.507 15.9736 257.207 15.9736V14.9736ZM254.724 16.0063L254.017 15.2992C253.152 16.1636 252.713 17.2396 252.713 18.4673H253.713H254.713C254.713 17.7614 254.947 17.1967 255.431 16.7135L254.724 16.0063ZM253.713 18.4673H252.713C252.713 19.7019 253.165 20.7802 254.046 21.6429L254.746 20.9282L255.445 20.2136C254.95 19.7286 254.713 19.1662 254.713 18.4673H253.713Z" fill="#404040" mask="url(#path-3-outside-2_4592_240)"/>
</svg>
