<svg width="283" height="259" viewBox="0 0 283 259" fill="none" xmlns="http://www.w3.org/2000/svg">
<mask id="path-1-outside-1_4404_247" maskUnits="userSpaceOnUse" x="4" y="48" width="232" height="165" fill="black">
<rect fill="white" x="4" y="48" width="232" height="165"/>
<path d="M59.9854 127.898C56.1768 127.898 52.8809 128.375 50.0977 129.327C45.1904 131.084 41.4917 134.344 39.0015 139.104L10.8765 137.786L22.0825 49.7856H109.863V76.3726H44.7144L39.0015 111.199C43.8354 108.05 47.6074 105.962 50.3174 104.937C54.8584 103.252 60.3882 102.41 66.9067 102.41C80.0903 102.41 91.5894 106.841 101.404 115.704C111.218 124.566 116.125 137.457 116.125 154.375C116.125 169.097 111.401 182.244 101.953 193.816C92.5049 205.389 78.3691 211.175 59.5459 211.175C44.3848 211.175 31.9336 207.11 22.1924 198.98C12.4512 190.85 7.03125 179.314 5.93262 164.373H37.1338C38.3789 171.185 40.7593 176.458 44.2749 180.193C47.7905 183.855 52.9175 185.687 59.6558 185.687C67.4194 185.687 73.3154 182.977 77.3438 177.557C81.4453 172.063 83.4961 165.179 83.4961 156.902C83.4961 148.772 81.5918 141.924 77.7832 136.358C73.9746 130.718 68.042 127.898 59.9854 127.898ZM178.479 127.898C174.671 127.898 171.375 128.375 168.592 129.327C163.685 131.084 159.986 134.344 157.496 139.104L129.371 137.786L140.577 49.7856H228.357V76.3726H163.208L157.496 111.199C162.33 108.05 166.102 105.962 168.812 104.937C173.353 103.252 178.882 102.41 185.401 102.41C198.584 102.41 210.083 106.841 219.898 115.704C229.712 124.566 234.62 137.457 234.62 154.375C234.62 169.097 229.896 182.244 220.447 193.816C210.999 205.389 196.863 211.175 178.04 211.175C162.879 211.175 150.428 207.11 140.687 198.98C130.945 190.85 125.525 179.314 124.427 164.373H155.628C156.873 171.185 159.253 176.458 162.769 180.193C166.285 183.855 171.412 185.687 178.15 185.687C185.914 185.687 191.81 182.977 195.838 177.557C199.939 172.063 201.99 165.179 201.99 156.902C201.99 148.772 200.086 141.924 196.277 136.358C192.469 130.718 186.536 127.898 178.479 127.898Z"/>
</mask>
<path d="M50.0977 129.327L49.774 128.38L49.7672 128.383L49.7604 128.385L50.0977 129.327ZM39.0015 139.104L38.9546 140.103L39.5919 140.133L39.8876 139.568L39.0015 139.104ZM10.8765 137.786L9.88448 137.66L9.74765 138.734L10.8296 138.785L10.8765 137.786ZM22.0825 49.7856V48.7856H21.2018L21.0905 49.6593L22.0825 49.7856ZM109.863 49.7856H110.863V48.7856H109.863V49.7856ZM109.863 76.3726V77.3726H110.863V76.3726H109.863ZM44.7144 76.3726V75.3726H43.865L43.7275 76.2107L44.7144 76.3726ZM39.0015 111.199L38.0147 111.037L37.6476 113.275L39.5473 112.037L39.0015 111.199ZM50.3174 104.937L49.9696 103.999L49.9635 104.002L50.3174 104.937ZM101.953 193.816L101.179 193.184L101.953 193.816ZM5.93262 164.373V163.373H4.85639L4.93531 164.446L5.93262 164.373ZM37.1338 164.373L38.1175 164.193L37.9676 163.373H37.1338V164.373ZM44.2749 180.193L43.5467 180.879L43.5535 180.886L44.2749 180.193ZM77.3438 177.557L76.5425 176.958L76.5412 176.96L77.3438 177.557ZM77.7832 136.358L76.9545 136.918L76.9579 136.923L77.7832 136.358ZM59.9854 126.898C56.0974 126.898 52.6869 127.384 49.774 128.38L50.4213 130.273C53.0748 129.365 56.2562 128.898 59.9854 128.898V126.898ZM49.7604 128.385C44.6088 130.231 40.7181 133.665 38.1154 138.641L39.8876 139.568C42.2653 135.022 45.7721 131.938 50.4349 130.268L49.7604 128.385ZM39.0483 138.106L10.9233 136.787L10.8296 138.785L38.9546 140.103L39.0483 138.106ZM11.8685 137.912L23.0745 49.912L21.0905 49.6593L9.88448 137.66L11.8685 137.912ZM22.0825 50.7856H109.863V48.7856H22.0825V50.7856ZM108.863 49.7856V76.3726H110.863V49.7856H108.863ZM109.863 75.3726H44.7144V77.3726H109.863V75.3726ZM43.7275 76.2107L38.0147 111.037L39.9883 111.361L45.7012 76.5344L43.7275 76.2107ZM39.5473 112.037C44.368 108.896 48.0662 106.858 50.6713 105.872L49.9635 104.002C47.1487 105.067 43.3029 107.203 38.4556 110.361L39.5473 112.037ZM50.6652 105.875C55.0638 104.243 60.4684 103.41 66.9067 103.41V101.41C60.3079 101.41 54.653 102.262 49.9696 103.999L50.6652 105.875ZM66.9067 103.41C79.8419 103.41 91.1023 107.749 100.734 116.446L102.074 114.961C92.0764 105.934 80.3388 101.41 66.9067 101.41V103.41ZM100.734 116.446C110.283 125.069 115.125 137.655 115.125 154.375H117.125C117.125 137.258 112.154 124.063 102.074 114.961L100.734 116.446ZM115.125 154.375C115.125 168.863 110.483 181.787 101.179 193.184L102.728 194.449C112.319 182.701 117.125 169.331 117.125 154.375H115.125ZM101.179 193.184C91.9681 204.465 78.1539 210.175 59.5459 210.175V212.175C78.5844 212.175 93.0416 206.312 102.728 194.449L101.179 193.184ZM59.5459 210.175C44.5713 210.175 32.3611 206.164 22.8331 198.212L21.5516 199.748C31.5061 208.056 44.1982 212.175 59.5459 212.175V210.175ZM22.8331 198.212C13.3374 190.287 8.01257 179.024 6.92992 164.3L4.93531 164.446C6.04993 179.605 11.565 191.413 21.5516 199.748L22.8331 198.212ZM5.93262 165.373H37.1338V163.373H5.93262V165.373ZM36.1501 164.553C37.4181 171.489 39.8602 176.962 43.5467 180.879L45.0031 179.508C41.6583 175.954 39.3397 170.88 38.1175 164.193L36.1501 164.553ZM43.5535 180.886C47.3136 184.803 52.738 186.687 59.6558 186.687V184.687C53.0969 184.687 48.2675 182.908 44.9963 179.501L43.5535 180.886ZM59.6558 186.687C67.6817 186.687 73.8993 183.867 78.1463 178.153L76.5412 176.96C72.7316 182.086 67.1572 184.687 59.6558 184.687V186.687ZM78.145 178.155C82.4006 172.456 84.4961 165.348 84.4961 156.902H82.4961C82.4961 165.009 80.49 171.671 76.5425 176.958L78.145 178.155ZM84.4961 156.902C84.4961 148.613 82.5525 141.558 78.6085 135.793L76.9579 136.923C80.6311 142.291 82.4961 148.932 82.4961 156.902H84.4961ZM78.6119 135.798C74.5812 129.83 68.3039 126.898 59.9854 126.898V128.898C67.7801 128.898 73.368 131.607 76.9545 136.918L78.6119 135.798ZM168.592 129.327L168.268 128.38L168.261 128.383L168.255 128.385L168.592 129.327ZM157.496 139.104L157.449 140.103L158.086 140.133L158.382 139.568L157.496 139.104ZM129.371 137.786L128.379 137.66L128.242 138.734L129.324 138.785L129.371 137.786ZM140.577 49.7856V48.7856H139.696L139.585 49.6593L140.577 49.7856ZM228.357 49.7856H229.357V48.7856H228.357V49.7856ZM228.357 76.3726V77.3726H229.357V76.3726H228.357ZM163.208 76.3726V75.3726H162.359L162.222 76.2107L163.208 76.3726ZM157.496 111.199L156.509 111.037L156.142 113.275L158.041 112.037L157.496 111.199ZM168.812 104.937L168.464 103.999L168.458 104.002L168.812 104.937ZM220.447 193.816L219.673 193.184L220.447 193.816ZM124.427 164.373V163.373H123.351L123.429 164.446L124.427 164.373ZM155.628 164.373L156.612 164.193L156.462 163.373H155.628V164.373ZM162.769 180.193L162.041 180.879L162.048 180.886L162.769 180.193ZM195.838 177.557L195.037 176.958L195.035 176.96L195.838 177.557ZM196.277 136.358L195.449 136.918L195.452 136.923L196.277 136.358ZM178.479 126.898C174.591 126.898 171.181 127.384 168.268 128.38L168.915 130.273C171.569 129.365 174.75 128.898 178.479 128.898V126.898ZM168.255 128.385C163.103 130.231 159.212 133.665 156.61 138.641L158.382 139.568C160.759 135.022 164.266 131.938 168.929 130.268L168.255 128.385ZM157.542 138.106L129.417 136.787L129.324 138.785L157.449 140.103L157.542 138.106ZM130.363 137.912L141.569 49.912L139.585 49.6593L128.379 137.66L130.363 137.912ZM140.577 50.7856H228.357V48.7856H140.577V50.7856ZM227.357 49.7856V76.3726H229.357V49.7856H227.357ZM228.357 75.3726H163.208V77.3726H228.357V75.3726ZM162.222 76.2107L156.509 111.037L158.482 111.361L164.195 76.5344L162.222 76.2107ZM158.041 112.037C162.862 108.896 166.56 106.858 169.165 105.872L168.458 104.002C165.643 105.067 161.797 107.203 156.95 110.361L158.041 112.037ZM169.159 105.875C173.558 104.243 178.963 103.41 185.401 103.41V101.41C178.802 101.41 173.147 102.262 168.464 103.999L169.159 105.875ZM185.401 103.41C198.336 103.41 209.596 107.749 219.228 116.446L220.568 114.961C210.571 105.934 198.833 101.41 185.401 101.41V103.41ZM219.228 116.446C228.777 125.069 233.62 137.655 233.62 154.375H235.62C235.62 137.258 230.648 124.063 220.568 114.961L219.228 116.446ZM233.62 154.375C233.62 168.863 228.977 181.787 219.673 193.184L221.222 194.449C230.814 182.701 235.62 169.331 235.62 154.375H233.62ZM219.673 193.184C210.462 204.465 196.648 210.175 178.04 210.175V212.175C197.079 212.175 211.536 206.312 221.222 194.449L219.673 193.184ZM178.04 210.175C163.065 210.175 150.855 206.164 141.327 198.212L140.046 199.748C150 208.056 162.692 212.175 178.04 212.175V210.175ZM141.327 198.212C131.832 190.287 126.507 179.024 125.424 164.3L123.429 164.446C124.544 179.605 130.059 191.413 140.046 199.748L141.327 198.212ZM124.427 165.373H155.628V163.373H124.427V165.373ZM154.644 164.553C155.912 171.489 158.354 176.962 162.041 180.879L163.497 179.508C160.152 175.954 157.834 170.88 156.612 164.193L154.644 164.553ZM162.048 180.886C165.808 184.803 171.232 186.687 178.15 186.687V184.687C171.591 184.687 166.762 182.908 163.49 179.501L162.048 180.886ZM178.15 186.687C186.176 186.687 192.393 183.867 196.64 178.153L195.035 176.96C191.226 182.086 185.651 184.687 178.15 184.687V186.687ZM196.639 178.155C200.895 172.456 202.99 165.348 202.99 156.902H200.99C200.99 165.009 198.984 171.671 195.037 176.958L196.639 178.155ZM202.99 156.902C202.99 148.613 201.047 141.558 197.103 135.793L195.452 136.923C199.125 142.291 200.99 148.932 200.99 156.902H202.99ZM197.106 135.798C193.075 129.83 186.798 126.898 178.479 126.898V128.898C186.274 128.898 191.862 131.607 195.449 136.918L197.106 135.798Z" fill="#404040" mask="url(#path-1-outside-1_4404_247)"/>
<mask id="path-3-outside-2_4404_247" maskUnits="userSpaceOnUse" x="242" y="49" width="40" height="35" fill="black">
<rect fill="white" x="242" y="49" width="40" height="35"/>
<path d="M264.39 74.4634C264.39 72.1929 265.188 70.2593 266.785 68.6626C268.382 67.0806 270.308 66.2896 272.564 66.2896C274.82 66.2896 276.746 67.0879 278.343 68.6846C279.939 70.2812 280.738 72.2075 280.738 74.4634C280.738 76.7192 279.939 78.6455 278.343 80.2422C276.746 81.8389 274.82 82.6372 272.564 82.6372C270.308 82.6372 268.382 81.8389 266.785 80.2422C265.188 78.6455 264.39 76.7192 264.39 74.4634ZM245.428 64.2461C243.831 62.6494 243.033 60.7231 243.033 58.4673C243.033 56.2114 243.831 54.2852 245.428 52.6885C247.024 51.0918 248.951 50.2935 251.207 50.2935C253.462 50.2935 255.389 51.0918 256.985 52.6885C258.582 54.2852 259.38 56.2114 259.38 58.4673C259.38 60.7231 258.582 62.6494 256.985 64.2461C255.403 65.8428 253.477 66.6411 251.207 66.6411C248.951 66.6411 247.024 65.8428 245.428 64.2461ZM254.656 82.835H251.25L269.07 50.1396H272.41L254.656 82.835ZM270.103 76.9243C270.777 77.6128 271.597 77.957 272.564 77.957C273.531 77.957 274.351 77.6201 275.025 76.9463C275.713 76.2578 276.058 75.4302 276.058 74.4634C276.058 73.4966 275.713 72.6763 275.025 72.0024C274.351 71.314 273.531 70.9697 272.564 70.9697C271.597 70.9697 270.77 71.314 270.081 72.0024C269.407 72.6763 269.07 73.4966 269.07 74.4634C269.07 75.4302 269.415 76.2505 270.103 76.9243ZM248.746 60.9282C249.419 61.6167 250.24 61.9609 251.207 61.9609C252.173 61.9609 252.994 61.624 253.667 60.9502C254.356 60.2617 254.7 59.4341 254.7 58.4673C254.7 57.5005 254.356 56.6802 253.667 56.0063C252.994 55.3179 252.173 54.9736 251.207 54.9736C250.24 54.9736 249.412 55.3179 248.724 56.0063C248.05 56.6802 247.713 57.5005 247.713 58.4673C247.713 59.4341 248.057 60.2544 248.746 60.9282Z"/>
</mask>
<path d="M266.785 68.6626L266.081 67.9522L266.078 67.9555L266.785 68.6626ZM256.985 64.2461L256.278 63.539L256.275 63.5423L256.985 64.2461ZM254.656 82.835V83.835H255.251L255.535 83.3122L254.656 82.835ZM251.25 82.835L250.372 82.3564L249.567 83.835H251.25V82.835ZM269.07 50.1396V49.1396H268.476L268.192 49.6611L269.07 50.1396ZM272.41 50.1396L273.289 50.6168L274.091 49.1396H272.41V50.1396ZM270.103 76.9243L270.818 76.2249L270.81 76.2172L270.802 76.2096L270.103 76.9243ZM275.025 72.0024L274.31 72.7019L274.318 72.7096L274.325 72.7171L275.025 72.0024ZM248.746 60.9282L249.46 60.2288L249.453 60.2211L249.445 60.2136L248.746 60.9282ZM253.667 56.0063L252.953 56.7058L252.96 56.7135L252.968 56.721L253.667 56.0063ZM265.39 74.4634C265.39 72.4564 266.084 70.7777 267.492 69.3697L266.078 67.9555C264.293 69.7409 263.39 71.9293 263.39 74.4634H265.39ZM267.489 69.373C268.898 67.9772 270.571 67.2896 272.564 67.2896V65.2896C270.046 65.2896 267.866 66.1839 266.081 67.9522L267.489 69.373ZM272.564 67.2896C274.554 67.2896 276.226 67.9823 277.636 69.3917L279.05 67.9775C277.266 66.1935 275.085 65.2896 272.564 65.2896V67.2896ZM277.636 69.3917C279.045 70.801 279.738 72.473 279.738 74.4634H281.738C281.738 71.942 280.834 69.7615 279.05 67.9775L277.636 69.3917ZM279.738 74.4634C279.738 76.4537 279.045 78.1257 277.636 79.5351L279.05 80.9493C280.834 79.1653 281.738 76.9847 281.738 74.4634H279.738ZM277.636 79.5351C276.226 80.9444 274.554 81.6372 272.564 81.6372V83.6372C275.085 83.6372 277.266 82.7333 279.05 80.9493L277.636 79.5351ZM272.564 81.6372C270.574 81.6372 268.902 80.9444 267.492 79.5351L266.078 80.9493C267.862 82.7333 270.043 83.6372 272.564 83.6372V81.6372ZM267.492 79.5351C266.083 78.1257 265.39 76.4537 265.39 74.4634H263.39C263.39 76.9847 264.294 79.1653 266.078 80.9493L267.492 79.5351ZM246.135 63.539C244.725 62.1296 244.033 60.4576 244.033 58.4673H242.033C242.033 60.9887 242.937 63.1692 244.721 64.9532L246.135 63.539ZM244.033 58.4673C244.033 56.4769 244.725 54.8049 246.135 53.3956L244.721 51.9814C242.937 53.7654 242.033 55.9459 242.033 58.4673H244.033ZM246.135 53.3956C247.544 51.9862 249.216 51.2935 251.207 51.2935V49.2935C248.685 49.2935 246.505 50.1974 244.721 51.9814L246.135 53.3956ZM251.207 51.2935C253.197 51.2935 254.869 51.9862 256.278 53.3956L257.692 51.9814C255.908 50.1974 253.728 49.2935 251.207 49.2935V51.2935ZM256.278 53.3956C257.688 54.8049 258.38 56.4769 258.38 58.4673H260.38C260.38 55.9459 259.476 53.7654 257.692 51.9814L256.278 53.3956ZM258.38 58.4673C258.38 60.4576 257.688 62.1296 256.278 63.539L257.692 64.9532C259.476 63.1692 260.38 60.9887 260.38 58.4673H258.38ZM256.275 63.5423C254.883 64.9472 253.213 65.6411 251.207 65.6411V67.6411C253.741 67.6411 255.924 66.7383 257.696 64.9499L256.275 63.5423ZM251.207 65.6411C249.216 65.6411 247.544 64.9483 246.135 63.539L244.721 64.9532C246.505 66.7372 248.685 67.6411 251.207 67.6411V65.6411ZM254.656 81.835H251.25V83.835H254.656V81.835ZM252.129 83.3135L269.948 50.6182L268.192 49.6611L250.372 82.3564L252.129 83.3135ZM269.07 51.1396H272.41V49.1396H269.07V51.1396ZM271.531 49.6625L253.777 82.3578L255.535 83.3122L273.289 50.6168L271.531 49.6625ZM269.388 77.6238C270.251 78.5052 271.329 78.957 272.564 78.957V76.957C271.865 76.957 271.303 76.7203 270.818 76.2249L269.388 77.6238ZM272.564 78.957C273.792 78.957 274.868 78.5178 275.732 77.6534L274.318 76.2392C273.835 76.7224 273.27 76.957 272.564 76.957V78.957ZM275.732 77.6534C276.607 76.7789 277.058 75.6975 277.058 74.4634H275.058C275.058 75.1628 274.82 75.7367 274.318 76.2392L275.732 77.6534ZM277.058 74.4634C277.058 73.2287 276.606 72.1505 275.724 71.2878L274.325 72.7171C274.821 73.2021 275.058 73.7644 275.058 74.4634H277.058ZM275.74 71.303C274.877 70.4215 273.799 69.9697 272.564 69.9697V71.9697C273.263 71.9697 273.825 72.2064 274.31 72.7019L275.74 71.303ZM272.564 69.9697C271.33 69.9697 270.248 70.4208 269.374 71.2953L270.788 72.7095C271.291 72.2071 271.864 71.9697 272.564 71.9697V69.9697ZM269.374 71.2953C268.51 72.1597 268.07 73.2357 268.07 74.4634H270.07C270.07 73.7575 270.305 73.1928 270.788 72.7095L269.374 71.2953ZM268.07 74.4634C268.07 75.698 268.522 76.7763 269.404 77.639L270.802 76.2096C270.307 75.7247 270.07 75.1623 270.07 74.4634H268.07ZM248.031 61.6277C248.894 62.5091 249.972 62.9609 251.207 62.9609V60.9609C250.508 60.9609 249.945 60.7243 249.46 60.2288L248.031 61.6277ZM251.207 62.9609C252.434 62.9609 253.51 62.5217 254.375 61.6573L252.96 60.2431C252.477 60.7263 251.912 60.9609 251.207 60.9609V62.9609ZM254.375 61.6573C255.249 60.7828 255.7 59.7014 255.7 58.4673H253.7C253.7 59.1668 253.463 59.7407 252.96 60.2431L254.375 61.6573ZM255.7 58.4673C255.7 57.2326 255.248 56.1544 254.367 55.2917L252.968 56.721C253.464 57.206 253.7 57.7683 253.7 58.4673H255.7ZM254.382 55.3069C253.519 54.4254 252.441 53.9736 251.207 53.9736V55.9736C251.905 55.9736 252.468 56.2103 252.953 56.7058L254.382 55.3069ZM251.207 53.9736C249.972 53.9736 248.891 54.4247 248.017 55.2992L249.431 56.7135C249.933 56.211 250.507 55.9736 251.207 55.9736V53.9736ZM248.017 55.2992C247.152 56.1636 246.713 57.2396 246.713 58.4673H248.713C248.713 57.7614 248.947 57.1967 249.431 56.7135L248.017 55.2992ZM246.713 58.4673C246.713 59.7019 247.165 60.7802 248.046 61.6429L249.445 60.2136C248.95 59.7286 248.713 59.1662 248.713 58.4673H246.713Z" fill="#404040" mask="url(#path-3-outside-2_4404_247)"/>
</svg>
